<svg xmlns="http://www.w3.org/2000/svg" viewBox="-532 901 125 125"><defs><style>.cls-1{fill:none}.cls-2{fill:#263a7a}.cls-3{fill:#df1f26}.cls-4{fill:#f47b25}.cls-5{fill:#2b70b8}</style></defs><g id="Group_4" data-name="Group 4" transform="translate(-532 901)"><path id="Path_97" data-name="Path 97" class="cls-1" d="M66 45.1L79.9 59l8-8.1L96 59l22-22L87.9 7 66 29l8 8z"/><path id="Path_98" data-name="Path 98" class="cls-1" d="M79.9 66L66 79.9l8 8-8 8.1 21.9 22L118 87.9 96 66l-8.1 8z"/><path id="Path_99" data-name="Path 99" class="cls-1" d="M59 79.9L45.1 66 37 74l-8-8L7 87.9 37 118l22-22-8.1-8.1z"/><path id="Rectangle_109" data-name="Rectangle 109" class="cls-1" transform="rotate(-45 135.125 -25.866)" d="M0 0h6.5v6.5H0z"/><path id="Rectangle_110" data-name="Rectangle 110" class="cls-1" transform="rotate(-45 91.585 -7.915)" d="M0 0h6.5v6.5H0z"/><path id="Rectangle_111" data-name="Rectangle 111" class="cls-1" transform="rotate(-45 99.75 -27.478)" d="M0 0h19.7v19.7H0z"/><path id="Rectangle_112" data-name="Rectangle 112" class="cls-1" transform="rotate(-45 73.685 -51.336)" d="M0 0h6.5v6.5H0z"/><path id="Path_100" data-name="Path 100" class="cls-1" d="M45.1 59L59 45.1 50.9 37l8.1-8L37 7 7 37l22 22 8-8.1z"/><path id="Rectangle_113" data-name="Rectangle 113" class="cls-1" transform="rotate(-45 117.056 -69.356)" d="M0 0h6.5v6.5H0z"/><path id="Path_101" data-name="Path 101" class="cls-2" d="M87.9 0L62.5 25.5 66 29 87.9 7 118 37 96 59l-3.5 3.5-4.6 4.6-4.5-4.6-3.5 3.5 8 8 8.1-8 3.5-3.5L125 37z"/><path id="Path_102" data-name="Path 102" class="cls-3" d="M87.9 50.9l-8 8.1-3.5 3.5-13.9 13.9 3.5 3.5L79.9 66l3.5-3.5 4.5-4.6 4.6 4.6L96 59z"/><path id="Path_103" data-name="Path 103" class="cls-2" d="M66 45.1l-3.5-3.5-4.6-4.6 4.6-4.6L59 29l-8.1 8 8.1 8.1 3.5 3.5 13.9 13.9 3.5-3.5z"/><path id="Path_104" data-name="Path 104" class="cls-4" d="M66 29l-3.5-3.5L37 0 0 37l25.5 25.5L29 59 7 37 37 7l22 22 3.5 3.4 4.6 4.6-4.6 4.6 3.5 3.5 8-8.1z"/><path id="Path_105" data-name="Path 105" class="cls-3" d="M99.5 62.5L96 66l22 21.9L87.9 118 66 96l-3.5-3.5-4.6-4.6 4.6-4.5-3.5-3.5-8.1 8L59 96l3.5 3.5L87.9 125 125 87.9z"/><path id="Path_106" data-name="Path 106" class="cls-5" d="M66 79.9l-3.5-3.5-13.9-13.9-3.5 3.5L59 79.9l3.5 3.5 4.6 4.5-4.6 4.6L66 96l8-8.1z"/><path id="Path_107" data-name="Path 107" class="cls-5" d="M59 96l-22 22L7 87.9 29 66l3.4-3.5 4.6-4.6 4.6 4.6 3.5-3.5-8.1-8.1-8 8.1-3.5 3.5L0 87.9 37 125l25.5-25.5z"/><path id="Path_108" data-name="Path 108" class="cls-4" d="M59 45.1L45.1 59l-3.5 3.5-4.6 4.6-4.6-4.6L29 66l8 8 8.1-8 3.5-3.5 13.9-13.9z"/></g></svg>