<?xml version="1.0" encoding="utf-8"?>
<!-- Generator: Adobe Illustrator 19.0.0, SVG Export Plug-In . SVG Version: 6.00 Build 0)  -->
<svg version="1.1" id="Group_34" xmlns="http://www.w3.org/2000/svg" xmlns:xlink="http://www.w3.org/1999/xlink" x="0px" y="0px"
	 viewBox="1 358.2 613.5 76.8" style="enable-background:new 1 358.2 613.5 76.8;" xml:space="preserve">
<style type="text/css">
	.st0{fill:#636466;}
	.st1{fill:#939598;}
	.st2{fill:none;}
	.st3{fill:#25387B;}
	.st4{fill:#E01F27;}
	.st5{fill:#F47C26;}
	.st6{fill:#226FB7;}
	.st7{fill:#2270B8;}
	.st8{fill:#FF7C00;}
</style>
<g>
	<path id="Path_37" class="st0" d="M472,372.1h18.2v4.4h-13v10.3h12v4.3h-12v11.3h13v4.4H472V372.1z"/>
	<path id="Path_38" class="st0" d="M496.5,372.1h18.2v4.4h-13v10.3h12v4.3h-12v11.3h13v4.4h-18.2V372.1z"/>
	<path id="Path_39" class="st0" d="M540.4,406.2c-2.5,0.7-5.1,1.2-7.7,1.2c-8.7,0-12.8-3.1-12.8-17.7c0-14.5,4.7-18,13.2-18
		c2.5,0,4.9,0.3,7.3,1l-0.7,4.3c-2.1-0.6-4.1-0.9-6.3-0.9c-5.6,0-8.2,1.8-8.2,13.4c0,11.6,2.5,13.6,8.3,13.6c2.1,0,4.3-0.3,6.2-1
		L540.4,406.2z"/>
	<path id="Path_40" class="st0" d="M547.2,372.1h8.2l5.2,19.2c1.1,3.8,1.7,6.8,2.6,10.9h0.1c0.9-4.1,1.5-7.3,2.5-11.1l5.2-19.2h8.3
		l2.8,34.7h-5.6l-1.3-20.4c-0.2-3.7-0.3-6.8-0.4-10.6l0,0c-0.9,3.7-1.6,6.9-2.6,10.6l-5.3,20.4h-7l-5.3-20.4c-1-3.7-1.7-7-2.6-10.6
		h-0.1c-0.1,3.7-0.2,6.9-0.4,10.6l-1.3,20.4h-5.2L547.2,372.1z"/>
	<path id="Path_41" class="st0" d="M588.8,372.1h10.5c9.9,0,13.8,3,13.8,17.1c0,13.9-4,17.6-14,17.6h-10.3V372.1z M599.1,402.4
		c6.1,0,8.5-2.1,8.5-13c0-11.1-2.3-12.8-8.5-12.8h-5v25.9L599.1,402.4L599.1,402.4z"/>
	<g id="Group_2" transform="translate(-868.958 -815.394)">
		<path id="Path_42" class="st1" d="M1341.3,1231.7h3.3v0.5h-2.8v2.5h2.5v0.5h-2.5v2.8h2.8v0.5h-3.3V1231.7z"/>
		<path id="Path_43" class="st1" d="M1348.6,1231.7h0.8l2.2,6.8h-0.5l-0.7-2h-2.7l-0.7,2h-0.5L1348.6,1231.7z M1350.2,1236l-0.5-1.8
			c-0.2-0.8-0.4-1.4-0.7-2.1l0,0c-0.2,0.7-0.4,1.3-0.7,2.1l-0.5,1.8H1350.2z"/>
		<path id="Path_44" class="st1" d="M1353.4,1237.9c0.5,0.1,1,0.2,1.5,0.2c1.2,0,1.6-0.5,1.6-1.3c0-0.7-0.3-0.9-1.6-1.6
			c-1.3-0.7-1.7-1-1.7-2s0.7-1.6,2.1-1.6c0.4,0,1,0.1,1.4,0.2l-0.1,0.5c-0.4-0.1-0.9-0.2-1.3-0.2c-1.1,0-1.6,0.5-1.6,1.2
			c0,0.7,0.2,0.9,1.5,1.5c1.3,0.7,1.7,1,1.7,2c0,1.2-0.8,1.8-2.2,1.8c-0.5,0-1.1-0.1-1.6-0.2L1353.4,1237.9z"/>
		<path id="Path_45" class="st1" d="M1360.6,1232.1h-2v-0.5h4.5v0.5h-2v6.3h-0.5V1232.1L1360.6,1232.1z"/>
		<path id="Path_46" class="st1" d="M1365.4,1231.7h3.3v0.5h-2.8v2.5h2.5v0.5h-2.5v2.8h2.8v0.5h-3.3V1231.7z"/>
		<path id="Path_47" class="st1" d="M1371.4,1231.7h1.6c1.5,0,2.1,0.3,2.1,1.6c0,1.3-0.5,1.7-1.9,1.7l2.1,3.3h-0.7l-2-3.3h-0.8v3.3
			h-0.5L1371.4,1231.7L1371.4,1231.7z M1373,1234.6c1.2,0,1.5-0.5,1.5-1.3c0-1-0.4-1.3-1.5-1.3h-1.1v2.5H1373z"/>
		<path id="Path_48" class="st1" d="M1377.7,1231.7h0.8l2.3,4.3c0.3,0.6,0.7,1.2,0.9,1.7l0,0c0-0.6,0-1.3,0-1.7v-4.3h0.5v6.8h-0.8
			l-2.3-4.3c-0.3-0.6-0.7-1.2-0.9-1.7l0,0c0,0.6,0,1.3,0,1.7v4.3h-0.5V1231.7z"/>
		<path id="Path_49" class="st1" d="M1388.8,1231.7h3.3v0.5h-2.8v2.5h2.5v0.5h-2.5v2.8h2.8v0.5h-3.3V1231.7z"/>
		<path id="Path_50" class="st1" d="M1395.3,1231.7v4.3c0,1.4,0.3,2.1,1.7,2.1c1.4,0,1.6-0.8,1.6-2.1v-4.3h0.5v4.3
			c0,1.7-0.5,2.7-2.3,2.7s-2.3-0.8-2.3-2.5v-4.3L1395.3,1231.7L1395.3,1231.7z"/>
		<path id="Path_51" class="st1" d="M1402.2,1231.7h1.6c1.5,0,2.1,0.3,2.1,1.6c0,1.3-0.5,1.7-1.9,1.7l2.1,3.3h-0.7l-2-3.3h-0.8v3.3
			h-0.5L1402.2,1231.7L1402.2,1231.7z M1403.8,1234.6c1.2,0,1.5-0.5,1.5-1.3c0-1-0.4-1.3-1.5-1.3h-1.1v2.5H1403.8z"/>
		<path id="Path_52" class="st1" d="M1410.7,1238.6c-1.6,0-2.4-0.6-2.4-3.5c0-3,0.9-3.6,2.4-3.6s2.4,0.6,2.4,3.5
			C1413.2,1237.9,1412.3,1238.6,1410.7,1238.6z M1410.7,1232c-1.2,0-1.9,0.5-1.9,3c0,2.5,0.7,3,1.9,3c1.2,0,1.9-0.5,1.9-3
			C1412.6,1232.5,1412,1232,1410.7,1232z"/>
		<path id="Path_53" class="st1" d="M1415.9,1231.7h1.6c1.4,0,2.1,0.3,2.1,1.7s-0.7,2-2.1,2h-1v3h-0.5L1415.9,1231.7L1415.9,1231.7z
			 M1417.5,1234.9c1.1,0,1.5-0.5,1.5-1.5c0-1-0.4-1.3-1.5-1.3h-1.1v2.8H1417.5z"/>
		<path id="Path_54" class="st1" d="M1422,1231.7h3.3v0.5h-2.8v2.5h2.5v0.5h-2.5v2.8h2.8v0.5h-3.3V1231.7z"/>
		<path id="Path_55" class="st1" d="M1429.4,1231.7h0.8l2.2,6.8h-0.5l-0.7-2h-2.7l-0.7,2h-0.5L1429.4,1231.7z M1431.1,1236l-0.5-1.8
			c-0.2-0.8-0.4-1.4-0.7-2.1l0,0c-0.2,0.7-0.4,1.3-0.7,2.1l-0.5,1.8H1431.1z"/>
		<path id="Path_56" class="st1" d="M1434.8,1231.7h0.8l2.3,4.3c0.3,0.6,0.7,1.2,0.9,1.7l0,0c0-0.6,0-1.3,0-1.7v-4.3h0.5v6.8h-0.8
			l-2.3-4.3c-0.3-0.6-0.7-1.2-0.9-1.7l0,0c0,0.6,0,1.3,0,1.7v4.3h-0.5V1231.7z"/>
		<path id="Path_57" class="st1" d="M1449.4,1238.2c-0.4,0.1-0.9,0.2-1.4,0.2c-1.6,0-2.4-0.6-2.4-3.5c0-2.9,0.9-3.5,2.4-3.5
			c0.4,0,0.9,0.1,1.3,0.2l-0.1,0.5c-0.4-0.1-0.9-0.2-1.2-0.2c-1.2,0-2,0.5-2,3c0,2.5,0.7,3,2,3c0.4,0,0.9-0.1,1.2-0.2L1449.4,1238.2
			z"/>
		<path id="Path_58" class="st1" d="M1451.9,1231.7h3.3v0.5h-2.8v2.5h2.5v0.5h-2.5v2.8h2.8v0.5h-3.3V1231.7z"/>
		<path id="Path_59" class="st1" d="M1457.9,1231.7h0.8l2.3,4.3c0.3,0.6,0.7,1.2,0.9,1.7l0,0c0-0.6,0-1.3,0-1.7v-4.3h0.5v6.8h-0.8
			l-2.3-4.3c-0.3-0.6-0.7-1.2-0.9-1.7l0,0c0,0.6,0,1.3,0,1.7v4.3h-0.5V1231.7z"/>
		<path id="Path_60" class="st1" d="M1466.5,1232.1h-2v-0.5h4.5v0.5h-2v6.3h-0.5V1232.1L1466.5,1232.1z"/>
		<path id="Path_61" class="st1" d="M1471.3,1231.7h1.6c1.5,0,2.1,0.3,2.1,1.6c0,1.3-0.5,1.7-1.9,1.7l2.1,3.3h-0.7l-2-3.3h-0.8v3.3
			h-0.5L1471.3,1231.7L1471.3,1231.7z M1473,1234.6c1.2,0,1.5-0.5,1.5-1.3c0-1-0.4-1.3-1.5-1.3h-1.1v2.5H1473z"/>
		<path id="Path_62" class="st1" d="M1477.7,1231.7h3.3v0.5h-2.8v2.5h2.5v0.5h-2.5v2.8h2.8v0.5h-3.3V1231.7z"/>
		<path id="Path_63" class="st1" d="M1341.3,1243.3h3.3v0.5h-2.7v2.5h2.4v0.5h-2.4v3.3h-0.5V1243.3L1341.3,1243.3z"/>
		<path id="Path_64" class="st1" d="M1348.7,1250.2c-1.6,0-2.4-0.6-2.4-3.5c0-3,0.9-3.6,2.4-3.6c1.5,0,2.4,0.6,2.4,3.5
			C1351.1,1249.6,1350.2,1250.2,1348.7,1250.2z M1348.7,1243.6c-1.2,0-1.9,0.5-1.9,3c0,2.5,0.7,3,1.9,3c1.2,0,1.9-0.5,1.9-3
			C1350.5,1244.1,1349.9,1243.6,1348.7,1243.6L1348.7,1243.6z"/>
		<path id="Path_65" class="st1" d="M1353.7,1243.3h1.6c1.5,0,2.1,0.3,2.1,1.6c0,1.3-0.5,1.7-1.9,1.7l2.1,3.3h-0.7l-2-3.3h-0.8v3.3
			h-0.5L1353.7,1243.3L1353.7,1243.3z M1355.3,1246.4c1.2,0,1.5-0.5,1.5-1.3c0-1-0.4-1.3-1.5-1.3h-1.1v2.5H1355.3z"/>
		<path id="Path_66" class="st1" d="M1363.5,1243.3h0.9l1.2,4.1c0.2,0.8,0.4,1.4,0.7,2.2l0,0c0.2-0.8,0.3-1.4,0.5-2.2l1.2-4.1h0.9
			l0.5,6.8h-0.5l-0.3-4.1c0-0.8-0.1-1.4-0.1-2.2l0,0c-0.2,0.8-0.4,1.4-0.7,2.2l-1.2,4.1h-0.8l-1.2-4.1c-0.2-0.8-0.4-1.5-0.7-2.2l0,0
			c0,0.7-0.1,1.4-0.1,2.2l-0.3,4.1h-0.5L1363.5,1243.3z"/>
		<path id="Path_67" class="st1" d="M1372.5,1243.3v4.3c0,1.4,0.3,2.1,1.7,2.1s1.6-0.8,1.6-2.1v-4.3h0.5v4.3c0,1.7-0.5,2.7-2.3,2.7
			s-2.3-0.8-2.3-2.5v-4.3L1372.5,1243.3L1372.5,1243.3z"/>
		<path id="Path_68" class="st1" d="M1379.1,1243.3h0.5v6.3h2.7v0.5h-3.3V1243.3L1379.1,1243.3z"/>
		<path id="Path_69" class="st1" d="M1384.7,1243.9h-2v-0.5h4.5v0.5h-2v6.3h-0.5V1243.9L1384.7,1243.9z"/>
		<path id="Path_70" class="st1" d="M1389.3,1243.3h0.5v6.8h-0.5V1243.3z"/>
		<path id="Path_71" class="st1" d="M1392.7,1243.3h1.6c1.4,0,2,0.3,2,1.7s-0.7,2-2.1,2h-1v3h-0.7L1392.7,1243.3L1392.7,1243.3z
			 M1394.2,1246.5c1.1,0,1.5-0.5,1.5-1.5c0-1-0.4-1.3-1.5-1.3h-1.1v2.8H1394.2z"/>
		<path id="Path_72" class="st1" d="M1399.3,1243.3h0.8l2.2,6.8h-0.5l-0.7-2h-2.7l-0.7,2h-0.5L1399.3,1243.3z M1400.8,1247.7
			l-0.5-1.8c-0.2-0.8-0.4-1.4-0.7-2.1l0,0c-0.2,0.7-0.4,1.3-0.7,2.1l-0.5,1.8H1400.8z"/>
		<path id="Path_73" class="st1" d="M1404.2,1243.3h1.6c1.5,0,2.1,0.3,2.1,1.6c0,1.3-0.5,1.7-1.9,1.7l2.1,3.3h-0.7l-2-3.3h-0.8v3.3
			h-0.5V1243.3L1404.2,1243.3z M1405.9,1246.4c1.2,0,1.5-0.5,1.5-1.3c0-1-0.4-1.3-1.5-1.3h-1.1v2.5H1405.9z"/>
		<path id="Path_74" class="st1" d="M1411.3,1243.9h-2v-0.5h4.5v0.5h-2v6.3h-0.5V1243.9L1411.3,1243.9z"/>
		<path id="Path_75" class="st1" d="M1417.1,1247.3l-2.1-4h0.5l1.2,2.2c0.2,0.5,0.4,0.8,0.7,1.3l0,0c0.2-0.5,0.4-0.8,0.7-1.3
			l1.1-2.2h0.5l-2.1,4v2.7h-0.5L1417.1,1247.3z"/>
		<path id="Path_76" class="st1" d="M1425,1243.3h1.9c1.9,0,2.5,0.6,2.5,3.3c0,2.8-0.8,3.5-2.6,3.5h-1.9L1425,1243.3L1425,1243.3z
			 M1426.8,1249.6c1.4,0,2.1-0.5,2.1-2.9c0-2.4-0.5-2.9-2.1-2.9h-1.3v5.8H1426.8z"/>
		<path id="Path_77" class="st1" d="M1432,1243.3h3.3v0.5h-2.8v2.5h2.5v0.5h-2.5v2.8h2.8v0.5h-3.3V1243.3z"/>
		<path id="Path_78" class="st1" d="M1438.1,1243.3h0.9l1.2,4.1c0.2,0.8,0.4,1.4,0.7,2.2l0,0c0.2-0.8,0.3-1.4,0.5-2.2l1.2-4.1h0.9
			l0.5,6.8h-0.5l-0.3-4.1c0-0.8-0.1-1.4-0.1-2.2l0,0c-0.2,0.8-0.4,1.4-0.7,2.2l-1.2,4.1h-0.8l-1.2-4.1c-0.2-0.8-0.4-1.5-0.7-2.2l0,0
			c0,0.7-0.1,1.4-0.1,2.2l-0.3,4.1h-0.5L1438.1,1243.3z"/>
		<path id="Path_79" class="st1" d="M1448.6,1250.2c-1.6,0-2.4-0.6-2.4-3.5c0-3,0.9-3.6,2.4-3.6s2.4,0.6,2.4,3.5
			C1451.2,1249.6,1450.3,1250.2,1448.6,1250.2z M1448.6,1243.6c-1.2,0-1.9,0.5-1.9,3c0,2.5,0.7,3,1.9,3s1.9-0.5,1.9-3
			C1450.5,1244.1,1450,1243.6,1448.6,1243.6z"/>
		<path id="Path_80" class="st1" d="M1457.2,1250c-0.4,0.1-0.9,0.2-1.4,0.2c-1.6,0-2.4-0.6-2.4-3.5c0-2.9,0.9-3.5,2.4-3.5
			c0.4,0,0.9,0.1,1.3,0.2l-0.1,0.5c-0.4-0.1-0.9-0.2-1.2-0.2c-1.2,0-2,0.5-2,3c0,2.5,0.7,3,2,3c0.4,0,0.9-0.1,1.2-0.2L1457.2,1250z"
			/>
		<path id="Path_81" class="st1" d="M1459.5,1243.3h1.6c1.5,0,2.1,0.3,2.1,1.6c0,1.3-0.5,1.7-1.9,1.7l2.1,3.3h-0.7l-2-3.3h-0.8v3.3
			h-0.5L1459.5,1243.3L1459.5,1243.3z M1461.1,1246.4c1.2,0,1.5-0.5,1.5-1.3c0-1-0.4-1.3-1.5-1.3h-1.1v2.5H1461.1z"/>
		<path id="Path_82" class="st1" d="M1466.9,1243.3h0.8l2.2,6.8h-0.5l-0.7-2h-2.7l-0.7,2h-0.5L1466.9,1243.3z M1468.5,1247.7
			l-0.5-1.8c-0.2-0.8-0.4-1.4-0.7-2.1l0,0c-0.2,0.7-0.4,1.3-0.7,2.1l-0.5,1.8H1468.5z"/>
		<path id="Path_83" class="st1" d="M1475.3,1250c-0.4,0.1-0.9,0.2-1.4,0.2c-1.6,0-2.4-0.6-2.4-3.5c0-2.9,0.9-3.5,2.4-3.5
			c0.4,0,0.9,0.1,1.3,0.2l-0.1,0.5c-0.4-0.1-0.9-0.2-1.2-0.2c-1.2,0-2,0.5-2,3c0,2.5,0.7,3,2,3c0.4,0,0.9-0.1,1.2-0.2L1475.3,1250z"
			/>
		<path id="Path_84" class="st1" d="M1478.8,1247.3l-2.1-4h0.5l1.2,2.2c0.2,0.5,0.4,0.8,0.7,1.3l0,0c0.2-0.5,0.4-0.8,0.7-1.3
			l1.1-2.2h0.5l-2.1,4v2.7h-0.5V1247.3z"/>
	</g>
	<path id="Path_85" class="st2" d="M426.4,380.6l6.7,7l3.8-4.1l3.9,4.1l10.6-11.2l-14.5-15.2l-10.5,11.2l3.8,4L426.4,380.6z"/>
	<path id="Path_86" class="st2" d="M433.1,391.2l-6.7,7l3.8,4l-3.8,4.1l10.5,11.2l14.5-15.3l-10.6-11.1l-3.9,4L433.1,391.2z"/>
	<path id="Path_87" class="st2" d="M423,398.3l-6.7-7l-3.9,4l-3.8-4L398,402.3l14.4,15.3l10.6-11.2l-3.9-4.1L423,398.3z"/>
	<polygon id="Rectangle_104" class="st2" points="426.9,402.4 424.6,404.8 422.4,402.4 424.6,400 	"/>
	<polygon id="Rectangle_105" class="st2" points="414.7,389.5 412.4,391.8 410.2,389.5 412.4,387.1 	"/>
	<polygon id="Rectangle_106" class="st2" points="431.5,389.5 424.8,396.6 418.1,389.5 424.8,382.4 	"/>
	<polygon id="Rectangle_107" class="st2" points="426.9,376.6 424.7,379 422.5,376.6 424.7,374.2 	"/>
	<path id="Path_88" class="st2" d="M416.4,387.7l6.7-7l-3.9-4.1l3.9-4l-10.6-11.2L398,376.5l10.6,11.2l3.8-4.1L416.4,387.7z"/>
	<polygon id="Rectangle_108" class="st2" points="439.2,389.5 436.9,391.8 434.7,389.5 436.9,387.1 	"/>
	<path id="Path_89" class="st3" d="M436.9,357.7l-12.2,12.9l1.6,1.7l10.5-11.2l14.5,15.2l-10.6,11.2l-1.6,1.7l-2.2,2.3l-2.2-2.3
		l-1.6,1.7l3.8,4l3.9-4l1.6-1.7l12.2-12.9L436.9,357.7z"/>
	<path id="Path_90" class="st4" d="M436.9,383.6l-3.8,4.1l-1.6,1.7l-6.7,7l1.6,1.7l6.7-7l1.6-1.7l2.2-2.3l2.2,2.3l1.6-1.7
		L436.9,383.6z"/>
	<path id="Path_91" class="st3" d="M426.4,380.6l-1.6-1.7l-2.2-2.3l2.2-2.3l-1.6-1.7l-3.9,4l3.9,4.1l1.6,1.7l6.7,7l1.6-1.7
		L426.4,380.6z"/>
	<path id="Path_92" class="st5" d="M426.4,372.5l-1.6-1.7l-12.2-12.9l-17.8,18.8l12.2,12.9l1.6-1.7L398,376.6l14.4-15.2l10.6,11.2
		l1.6,1.7l2.2,2.3l-2.2,2.3l1.6,1.7l3.8-4.1L426.4,372.5z"/>
	<path id="Path_93" class="st4" d="M442.5,389.5l-1.6,1.7l10.6,11.1L437,417.6l-10.5-11.2l-1.6-1.7l-2.2-2.3l2.2-2.3l-1.6-1.7
		l-3.9,4l3.9,4.1l1.6,1.7l12.2,12.9l17.8-18.8L442.5,389.5z"/>
	<path id="Path_94" class="st6" d="M426.4,398.3l-1.6-1.7l-6.7-7l-1.6,1.7l6.7,7l1.6,1.7l2.2,2.3l-2.2,2.3l1.6,1.7l3.8-4.1
		L426.4,398.3z"/>
	<path id="Path_95" class="st7" d="M423,406.5l-10.6,11.2L398,402.3l10.6-11.1l1.6-1.7l2.2-2.3l2.2,2.3l1.6-1.7l-3.9-4.1l-3.8,4.1
		l-1.6,1.7l-12.2,12.9l17.8,18.8l12.2-12.9L423,406.5z"/>
	<path id="Path_96" class="st5" d="M423,380.6l-6.7,7l-1.6,1.7l-2.2,2.3l-2.2-2.3l-1.6,1.7l3.8,4l3.9-4l1.6-1.7l6.7-7L423,380.6z"/>
</g>
<g>
	<polygon class="st8" points="1,359.9 2.9,359.9 13.5,378.3 13.5,359.9 15.4,359.9 15.4,381.3 13.4,381.3 2.7,362.9 2.7,381.3 
		1,381.3 	"/>
	<path class="st8" d="M20.5,374c0,3.9,1.8,6.2,4.5,6.2c2.1,0,3.6-1.4,4-3.6h1.6c-0.3,3.1-2.5,5.2-5.7,5.2c-3.6,0-6-3-6-8.1
		c0-5.2,2.3-8.3,6-8.3c3.6,0,5.9,2.9,5.9,7.9v0.6L20.5,374L20.5,374L20.5,374z M29.1,372.5c-0.1-3.4-1.7-5.4-4.2-5.4
		c-2.4,0-4.1,2.1-4.3,5.4H29.1L29.1,372.5z"/>
	<path class="st8" d="M36.1,365.8h2.5v1.5h-2.5v11.3c0,1.2,0.1,1.7,1,1.7c0.4,0,0.9-0.2,1.5-0.3v1.5c-0.7,0.2-1.3,0.3-1.9,0.3
		c-1.7,0-2.1-1-2.1-3.1v-11.3h-1.9v-1.5h1.9v-4.4h1.6C36.1,361.3,36.1,365.8,36.1,365.8z"/>
	<path class="st8" d="M41.6,359.9h1.6v8.4c1-1.9,2.5-2.9,4.6-2.9c1.8,0,3.3,0.9,4,2.2c0.5,1,0.5,2.4,0.5,4.2v9.4h-1.6v-9.4
		c0-3.3-0.5-4.9-3.3-4.9c-2.5,0-4.2,2-4.2,5.2v9.1h-1.6v-21.3H41.6z"/>
	<path class="st8" d="M57.1,374c0,3.9,1.8,6.2,4.5,6.2c2.1,0,3.7-1.4,4-3.6h1.5c-0.3,3.1-2.5,5.2-5.7,5.2c-3.6,0-6-3-6-8.1
		c0-5.2,2.3-8.3,6-8.3c3.6,0,5.9,2.9,5.9,7.9v0.6L57.1,374L57.1,374L57.1,374z M65.6,372.5c-0.1-3.4-1.7-5.4-4.2-5.4
		c-2.4,0-4.1,2.1-4.3,5.4H65.6L65.6,372.5z"/>
	<path class="st8" d="M70.5,365.8H72v2.8c0.8-2.2,2.2-3.1,4.2-3.1h0.2v1.9h-0.2c-2.7,0-4.1,1.9-4.1,5.4v8.7h-1.6V365.8z"/>
	<rect x="79.2" y="359.9" class="st8" width="1.6" height="21.5"/>
	<path class="st8" d="M88.7,381.7c-2.8,0-4.6-1.8-4.6-4.5c0-1.8,0.8-3.1,2.2-3.8c1.4-0.8,3.1-0.8,5-1c1.9-0.5,2.4-0.4,2.4-2
		c0-2.4-0.9-3.3-3.4-3.3c-2.4,0-3.7,1.2-3.8,3.4H85c0.1-3,2.1-5,5.5-5c3.2,0,5,1.6,5,4.7v8.3v0.2c0,1,0,1.5,1,1.5c0.1,0,0.3,0,0.6,0
		v1.4c-0.5,0.1-0.9,0.2-1.1,0.2c-1.3,0-1.9-0.7-1.9-2.2v-0.2C92.2,380.8,90.6,381.7,88.7,381.7 M88.8,373.9c-2,0.6-3,1.7-3,3.2
		c0,1.8,1.2,3,3,3c2.8,0,4.9-1.8,4.9-4.8v-2.2C92.5,373.6,90.8,373.7,88.8,373.9"/>
	<path class="st8" d="M99.3,365.8h1.5v2.5c1-1.9,2.5-2.9,4.6-2.9c1.9,0,3.3,0.8,4.1,2.2c0.5,1,0.5,2.2,0.5,3.8v0.5v9.4h-1.6v-9.6
		c0-3.1-0.6-4.6-3.4-4.6c-2.5,0-4.1,2-4.1,5.2v9.1h-1.6L99.3,365.8L99.3,365.8z"/>
	<path class="st8" d="M125.6,381.3H124v-2.7c-1,2.1-2.7,3-4.9,3c-3.6,0-6-3-6-8.2s2.4-8.2,6.1-8.2c2.1,0,3.7,1.1,4.8,3v-8.7h1.6
		C125.6,359.9,125.6,381.3,125.6,381.3z M119.6,380.1c2.9,0,4.7-2.3,4.7-6.6c0-4.2-1.7-6.6-4.7-6.6c-2.9,0-4.7,2.4-4.7,6.6
		C114.9,377.8,116.6,380.1,119.6,380.1"/>
	<path class="st8" d="M130.7,376.5c0,2.2,1.5,3.6,3.6,3.6c2.3,0,3.6-1.2,3.6-2.9c0-1.9-1.3-2.3-3.6-2.9c-3.2-0.9-5-1.8-5-4.4
		c0-2.7,1.9-4.5,4.8-4.5c3,0,5,1.9,5.2,4.9h-1.6c-0.1-2.1-1.4-3.3-3.5-3.3c-1.9,0-3,1.1-3,2.7c0,2.3,1.6,2.5,4.5,3.2
		c2.9,0.8,4.1,1.9,4.1,4.3c0,2.6-2,4.4-5.3,4.4c-3.2,0-5.3-2.1-5.4-5.2L130.7,376.5L130.7,376.5z"/>
	<rect x="150.8" y="359.9" width="1.7" height="21.5"/>
	<path d="M157,365.8h1.5v2.5c1-1.9,2.5-2.9,4.6-2.9c1.9,0,3.3,0.8,4.1,2.2c0.5,1,0.5,2.2,0.5,3.8v0.5v9.4h-1.6v-9.6
		c0-3.1-0.6-4.6-3.4-4.6c-2.5,0-4.1,2-4.1,5.2v9.1h-1.6v-15.6H157z"/>
	<path d="M172.7,376.5c0,2.2,1.5,3.6,3.6,3.6c2.3,0,3.6-1.2,3.6-2.9c0-1.9-1.2-2.3-3.6-2.9c-3.2-0.9-5-1.8-5-4.4
		c0-2.7,1.9-4.5,4.8-4.5c3,0,5,1.9,5.2,4.9h-1.6c-0.1-2.1-1.4-3.3-3.5-3.3c-1.9,0-3,1.1-3,2.7c0,2.3,1.6,2.5,4.5,3.2
		c2.9,0.8,4.1,1.9,4.1,4.3c0,2.6-2,4.4-5.3,4.4s-5.3-2.1-5.4-5.2L172.7,376.5L172.7,376.5z"/>
	<path d="M187,365.8h2.5v1.5H187v11.3c0,1.2,0.1,1.7,1,1.7c0.4,0,0.9-0.2,1.5-0.3v1.5c-0.7,0.2-1.3,0.3-1.9,0.3
		c-1.7,0-2.1-1-2.1-3.1v-11.3h-1.9v-1.5h1.9v-4.4h1.6L187,365.8L187,365.8z"/>
	<path d="M192.6,359.9h1.6v2.7h-1.6V359.9z M192.6,365.8h1.6v15.5h-1.6V365.8z"/>
	<path d="M200.4,365.8h2.5v1.5h-2.5v11.3c0,1.2,0.1,1.7,1,1.7c0.4,0,0.9-0.2,1.5-0.3v1.5c-0.7,0.2-1.3,0.3-1.9,0.3
		c-1.7,0-2.1-1-2.1-3.1v-11.3H197v-1.5h1.9v-4.4h1.6L200.4,365.8L200.4,365.8z"/>
	<path d="M216.5,381.3H215v-2.5c-1,2-2.5,2.9-4.6,2.9c-3.1,0-4.7-1.9-4.7-5.5v-10.4h1.6v10c0,3,0.8,4.3,3.3,4.3c2.6,0,4.2-2,4.2-5.2
		v-9.1h1.6L216.5,381.3L216.5,381.3z"/>
	<path d="M222.5,365.8h2.5v1.5h-2.5v11.3c0,1.2,0.1,1.7,1,1.7c0.4,0,0.9-0.2,1.5-0.3v1.5c-0.7,0.2-1.3,0.3-1.9,0.3
		c-1.7,0-2.1-1-2.1-3.1v-11.3h-1.9v-1.5h1.9v-4.4h1.6L222.5,365.8L222.5,365.8z"/>
	<path d="M228.9,374c0,3.9,1.8,6.2,4.5,6.2c2.1,0,3.7-1.4,4-3.6h1.6c-0.3,3.1-2.5,5.2-5.7,5.2c-3.6,0-6-3-6-8.1c0-5.2,2.3-8.3,6-8.3
		s5.9,2.9,5.9,7.9v0.6L228.9,374L228.9,374L228.9,374z M237.5,372.5c-0.1-3.4-1.7-5.4-4.2-5.4c-2.4,0-4.1,2.1-4.3,5.4H237.5z"/>
	<path d="M250.6,367.2h-2v-1.5h2v-2.9c0-2.4,1-3.3,3.2-3.3c0.3,0,0.5,0,0.8,0.1v1.6c-0.3,0-0.6-0.1-0.9-0.1c-1.2,0-1.6,0.6-1.6,2
		v2.7h2.5v1.5h-2.5v14.1h-1.6L250.6,367.2L250.6,367.2z"/>
	<path d="M262.7,365.4c3.9,0,6.3,3,6.3,8.2s-2.3,8.2-6.3,8.2c-3.9,0-6.3-3-6.3-8.2C256.5,368.3,258.8,365.4,262.7,365.4
		 M262.7,380.1c2.9,0,4.7-2.3,4.7-6.6c0-4.2-1.7-6.6-4.7-6.6c-2.9,0-4.7,2.4-4.7,6.6C258.2,377.9,259.9,380.1,262.7,380.1"/>
	<path d="M272.2,365.8h1.5v2.8c0.8-2.2,2.2-3.1,4.2-3.1h0.2v1.9H278c-2.7,0-4.1,1.9-4.1,5.4v8.7h-1.6V365.8L272.2,365.8z"/>
	<path d="M170,402.6h-6l7.3,23.3c0.1,0.2,0.1,0.5,0.1,0.7c0,2.3-1.1,3.4-3.2,3.4c-0.3,0-0.8,0-1.2-0.1v5c0.9,0.1,1.7,0.2,2.3,0.2
		c3.9,0,5.4-1.4,6.6-5.3l1-3.4L170,402.6z"/>
	<path d="M377.9,402.6h-6l7.3,23.3c0.1,0.2,0.1,0.5,0.1,0.7c0,2.3-1.1,3.4-3.2,3.4c-0.3,0-0.8,0-1.2-0.1v5c0.9,0.1,1.7,0.2,2.3,0.2
		c3.9,0,5.4-1.4,6.6-5.3l1-3.4L377.9,402.6z"/>
	<path class="st8" d="M385.8,408.6c1.4-6,5.5-9.9,5.5-9.9s1.7,5.7,0.3,11.7c-1.4,6-5.5,9.9-5.5,9.9S384.4,414.5,385.8,408.6"/>
	<polygon points="1,394.5 9.4,394.5 14.9,418.3 20.2,394.5 28.6,394.5 28.6,425.7 23.4,425.7 23.4,400.6 17.8,425.7 12,425.7 
		6.4,400.6 6.4,425.7 1,425.7 	"/>
	<path d="M52.4,425.7H47v-2.8c-1.5,2.2-3.6,3.3-6.2,3.3c-4.5,0-6.7-2.7-6.7-8v-15.7h5.5v14.1c0,3.1,0.8,4.5,3.1,4.5
		c2.5,0,4.1-1.9,4.1-4.8v-13.6h5.5C52.4,402.6,52.4,425.7,52.4,425.7z"/>
	<rect x="57.7" y="394.5" width="5.5" height="31.2"/>
	<path d="M74.3,426c-4.5,0-5.5-1.8-5.5-6.6v-12.5h-2.6v-4.3h2.6v-6.3h5.4v6.3h3.1v4.3h-3.1v12.8c0,1.2,0.3,1.5,1.8,1.5h1.3v4.6
		C75.9,426,74.8,426,74.3,426"/>
	<path d="M81,394.5h5.5v5.6H81V394.5z M81,402.6h5.5v23H81V402.6z"/>
	<path d="M91.8,402.6H97v3.1c1.6-2.7,3.4-3.9,6.1-3.9c5,0,8.4,4.8,8.4,12.2c0,7.6-3.5,12.4-8.3,12.4c-2.6,0-4.7-1.3-6-3.6v12.1h-5.3
		L91.8,402.6L91.8,402.6z M101.6,407.2c-2.8,0-4.5,2.5-4.5,7.2c0,4.4,1.7,6.8,4.6,6.8c2.6,0,4.3-2.6,4.3-6.8
		C106,409.6,104.4,407.2,101.6,407.2"/>
	<path d="M120.6,426.5c-3.9,0-6.2-2.6-6.2-7.4c0-4.5,2.1-6.5,6.9-7.4c4.2-0.7,5.7-0.4,5.7-2.6c0-1.9-1-2.6-3.3-2.6
		c-2.2,0-3.4,1.1-3.4,2.9v0.4h-5.1v-0.4c0-4.7,3-7.6,8.3-7.6c5.8,0,8.8,2.4,8.8,6.5v13.1c0,1.7,0.2,2.7,1.1,3.2v1.1h-5.7
		c-0.4-0.8-0.6-1.8-0.6-2.9C125.8,425.3,123.5,426.5,120.6,426.5 M122.2,415.9c-1.7,0.6-2.5,1.3-2.5,3c0,1.7,1,2.8,2.7,2.8
		c2.9,0,4.8-2,4.8-5.2v-2.2C125,415.4,123.2,415.6,122.2,415.9"/>
	<path d="M137.1,402.6h5.1v3.9c1.4-3.1,3.2-4.6,5.9-4.6c0.3,0,0.5,0,0.8,0v6.2H147c-2.9,0-4.5,1.8-4.5,5.2v12.2h-5.5L137.1,402.6
		L137.1,402.6z"/>
	<path d="M159,426c-4.5,0-5.5-1.8-5.5-6.6v-12.5h-2.6v-4.3h2.6v-6.3h5.4v6.3h3.1v4.3h-3.1v12.8c0,1.2,0.3,1.5,1.8,1.5h1.3v4.6
		C160.6,426,159.5,426,159,426"/>
	<path d="M186.9,394.5h10.7c8.4,0,12.5,5.1,12.5,15.6c0,5.8-1.6,10.2-4.5,12.8c-2.6,2.5-5.7,2.8-9.6,2.8h-9.2V394.5L186.9,394.5z
		 M197.1,420.1c5.3,0,7.5-3,7.5-9.9c0-7-2.1-10.1-6.8-10.1h-5.3v20.1H197.1z"/>
	<path d="M232.6,418.7c-1.1,4.8-4.6,7.8-9.4,7.8c-5.8,0-9.5-4.7-9.5-12.5c0-7.6,3.6-12.2,9.5-12.2c6.2,0,9.7,4.4,9.7,12.4
		c0,0.5,0,1.1,0,1.6h-13.6c0.2,3.6,1.5,5.5,4.2,5.5c1.8,0,3-0.8,3.7-2.6H232.6L232.6,418.7z M227.2,411.8c-0.1-3.1-1.5-4.7-4-4.7
		c-2.3,0-3.7,1.7-3.9,4.7H227.2z"/>
	<path d="M236.8,402.6h5.2v2.6c1.5-2.2,3.3-3.2,5.7-3.2c2.5,0,4.3,1.1,5.7,3.3c1.4-2.3,3.3-3.3,5.8-3.3c4,0,6.7,2.9,6.7,7.6v16.1
		h-5.4v-14.8c0-2.3-1.1-3.5-3-3.5c-2,0-3.4,1.7-3.4,4.4v14h-5.4v-14.8c0-2.3-1.1-3.5-2.9-3.5c-2,0-3.4,1.7-3.4,4.4v14h-5.4
		L236.8,402.6L236.8,402.6z"/>
	<path d="M280,401.9c6.4,0,10.3,4.6,10.3,12.3c0,7.7-3.9,12.3-10.3,12.3c-6.4,0-10.3-4.6-10.3-12.3
		C269.7,406.5,273.6,401.9,280,401.9 M280,421.3c3,0,4.8-2.6,4.8-7.2c0-4.6-1.7-7.1-4.8-7.1c-3,0-4.8,2.6-4.8,7.1
		C275.2,418.8,277,421.3,280,421.3"/>
	<path d="M312,417c-0.5,5.9-4,9.4-9.2,9.4c-5.9,0-9.4-4.5-9.4-12.3c0-7.7,3.6-12.3,9.6-12.3c5.3,0,8.6,3.3,9,8.9h-5.4
		c-0.3-2.5-1.5-3.7-3.5-3.7c-2.7,0-4,2.5-4,7.2c0,4.4,1.4,6.9,4,6.9c2,0,3.2-1.4,3.6-4.1H312L312,417z"/>
	<path d="M315.8,402.6h5.1v3.9c1.4-3.1,3.2-4.6,5.9-4.6c0.3,0,0.5,0,0.8,0v6.2h-1.8c-2.9,0-4.5,1.8-4.5,5.2v12.2h-5.5V402.6
		L315.8,402.6z"/>
	<path d="M335.9,426.5c-3.9,0-6.2-2.6-6.2-7.4c0-4.5,2.1-6.5,6.9-7.4c4.2-0.7,5.7-0.4,5.7-2.6c0-1.9-1-2.6-3.3-2.6
		c-2.2,0-3.4,1.1-3.4,2.9v0.4h-5.1v-0.4c0-4.7,3-7.6,8.3-7.6c5.8,0,8.8,2.4,8.8,6.5v13.1c0,1.7,0.2,2.7,1.1,3.2v1.1H343
		c-0.4-0.8-0.6-1.8-0.6-2.9C341.1,425.3,338.9,426.5,335.9,426.5 M337.6,415.9c-1.7,0.6-2.5,1.3-2.5,3c0,1.7,1,2.8,2.6,2.8
		c2.9,0,4.8-2,4.8-5.2v-2.2C340.3,415.4,338.6,415.6,337.6,415.9"/>
	<path d="M370.3,417c-0.5,5.9-4,9.4-9.2,9.4c-5.9,0-9.4-4.5-9.4-12.3c0-7.7,3.6-12.3,9.6-12.3c5.3,0,8.6,3.3,9,8.9H365
		c-0.3-2.5-1.5-3.7-3.5-3.7c-2.7,0-4,2.5-4,7.2c0,4.4,1.4,6.9,4,6.9c2,0,3.2-1.4,3.6-4.1H370.3L370.3,417z"/>
</g>
</svg>
