<svg id="Group_34" data-name="Group 34" xmlns="http://www.w3.org/2000/svg" viewBox="-940 -866 200 66.858">
  <defs>
    <style>
      .cls-1 {
        fill: #636466;
      }

      .cls-2 {
        fill: #939598;
      }

      .cls-3 {
        fill: none;
      }

      .cls-4 {
        fill: #25387b;
      }

      .cls-5 {
        fill: #e01f27;
      }

      .cls-6 {
        fill: #f47c26;
      }

      .cls-7 {
        fill: #226fb7;
      }

      .cls-8 {
        fill: #2270b8;
      }
    </style>
  </defs>
  <path id="Path_37" data-name="Path 37" class="cls-1" d="M161,28.3h16.736v3.832H165.845v8.9h11.011v3.744H165.845v9.822h11.892v3.788H161Z" transform="translate(-1030.091 -881.836)"/>
  <path id="Path_38" data-name="Path 38" class="cls-1" d="M211.8,28.3h16.736v3.832H216.645v8.9h11.011v3.744H216.645v9.822h11.892v3.788H211.8Z" transform="translate(-1058.517 -881.836)"/>
  <path id="Path_39" data-name="Path 39" class="cls-1" d="M279.162,57.237a28.708,28.708,0,0,1-7.091,1.013c-8.016,0-11.671-2.687-11.671-15.415,0-12.64,4.316-15.635,12.068-15.635a25.082,25.082,0,0,1,6.695.925l-.617,3.7a20.762,20.762,0,0,0-5.77-.837c-5.109,0-7.531,1.63-7.531,11.627,0,10.13,2.29,11.76,7.575,11.76a20.691,20.691,0,0,0,5.726-.925Z" transform="translate(-1085.712 -881.22)"/>
  <path id="Path_40" data-name="Path 40" class="cls-1" d="M314.11,28.3H321.6l4.8,16.736c.969,3.347,1.586,5.946,2.378,9.513h.088c.793-3.567,1.409-6.254,2.334-9.557L335.956,28.3h7.575l2.555,30.082h-5.109L339.744,40.72c-.22-3.215-.308-5.946-.44-9.161l-.044-.044c-.793,3.215-1.542,5.99-2.422,9.205L331.9,58.382h-6.386L320.629,40.72c-.881-3.171-1.63-6.078-2.422-9.161h-.088c-.088,3.171-.22,5.99-.44,9.161l-1.233,17.661H311.6Z" transform="translate(-1114.361 -881.836)"/>
  <path id="Path_41" data-name="Path 41" class="cls-1" d="M403.8,28.3h9.6c9.073,0,12.552,2.6,12.552,14.8,0,12.068-3.744,15.283-12.773,15.283H403.8Zm9.425,26.294c5.638,0,7.84-1.762,7.84-11.275,0-9.557-2.07-11.143-7.84-11.143h-4.581V54.638h4.581Z" transform="translate(-1165.954 -881.836)"/>
  <g id="Group_2" data-name="Group 2" transform="translate(-868.958 -815.394)">
    <path id="Path_42" data-name="Path 42" class="cls-2" d="M161.4,115.2h3.039v.4h-2.554v2.2h2.334v.4h-2.334v2.422h2.554v.4H161.4Z" transform="translate(-161.356 -115.068)"/>
    <path id="Path_43" data-name="Path 43" class="cls-2" d="M174.338,115.2h.7l2.026,5.858h-.528l-.573-1.674h-2.51l-.573,1.674H172.4Zm1.453,3.788-.528-1.63c-.22-.661-.4-1.189-.573-1.806h0c-.176.617-.352,1.145-.573,1.806l-.529,1.63Z" transform="translate(-167.511 -115.068)"/>
    <path id="Path_44" data-name="Path 44" class="cls-2" d="M186.688,120.517a5.219,5.219,0,0,0,1.409.22c1.057,0,1.542-.44,1.542-1.145,0-.617-.264-.837-1.453-1.365-1.189-.573-1.586-.881-1.586-1.718s.617-1.409,1.938-1.409a5.647,5.647,0,0,1,1.321.176l-.088.4a5.2,5.2,0,0,0-1.233-.176c-1.013,0-1.453.4-1.453.969s.22.793,1.409,1.321c1.233.573,1.63.881,1.63,1.718,0,.969-.7,1.586-2.026,1.586a5.029,5.029,0,0,1-1.453-.22Z" transform="translate(-175.457 -115.012)"/>
    <path id="Path_45" data-name="Path 45" class="cls-2" d="M199.462,115.7H197.7v-.4h4.052v.4H199.99v5.461h-.484V115.7Z" transform="translate(-181.668 -115.124)"/>
    <path id="Path_46" data-name="Path 46" class="cls-2" d="M211.6,115.2h3.039v.4h-2.555v2.2h2.334v.4h-2.334v2.422h2.555v.4H211.6Z" transform="translate(-189.446 -115.068)"/>
    <path id="Path_47" data-name="Path 47" class="cls-2" d="M224.044,115.2h1.541c1.365,0,1.894.308,1.894,1.409,0,1.057-.484,1.5-1.718,1.542l1.894,2.907h-.617l-1.85-2.863h-.661v2.863H224V115.2Zm1.5,2.643c1.1,0,1.409-.352,1.409-1.145,0-.881-.352-1.057-1.409-1.057h-1.013v2.2Z" transform="translate(-196.385 -115.068)"/>
    <path id="Path_48" data-name="Path 48" class="cls-2" d="M237.4,115.2h.661l2.114,3.744c.308.529.573,1.013.837,1.542h0c-.044-.529-.044-1.057-.044-1.542V115.2h.484v5.858h-.661l-2.114-3.744c-.308-.529-.573-1.013-.837-1.542h0c.044.529.044,1.057.044,1.542v3.744H237.4Z" transform="translate(-203.883 -115.068)"/>
    <path id="Path_49" data-name="Path 49" class="cls-2" d="M260.6,115.2h3.039v.4h-2.555v2.2h2.334v.4h-2.334v2.422h2.555v.4H260.6Z" transform="translate(-216.865 -115.068)"/>
    <path id="Path_50" data-name="Path 50" class="cls-2" d="M273.284,115.144v3.7c0,1.189.264,1.85,1.586,1.85s1.542-.661,1.542-1.85v-3.7h.529V118.8c0,1.5-.484,2.29-2.07,2.29s-2.07-.749-2.07-2.246V115.1h.484Z" transform="translate(-223.692 -115.012)"/>
    <path id="Path_51" data-name="Path 51" class="cls-2" d="M288.044,115.2h1.542c1.365,0,1.894.308,1.894,1.409,0,1.057-.484,1.5-1.718,1.542l1.894,2.907h-.617l-1.85-2.863h-.661v2.863H288V115.2Zm1.5,2.643c1.1,0,1.409-.352,1.409-1.145,0-.881-.352-1.057-1.409-1.057h-1.013v2.2Z" transform="translate(-232.197 -115.068)"/>
    <path id="Path_52" data-name="Path 52" class="cls-2" d="M303.2,121.022c-1.453,0-2.2-.484-2.2-3.039s.793-3.083,2.246-3.083,2.2.484,2.2,3.039S304.656,121.022,303.2,121.022Zm0-5.682c-1.1,0-1.718.4-1.718,2.643s.617,2.643,1.718,2.643c1.145,0,1.718-.4,1.718-2.643S304.347,115.34,303.2,115.34Z" transform="translate(-239.472 -114.9)"/>
    <path id="Path_53" data-name="Path 53" class="cls-2" d="M316.844,115.2h1.5c1.277,0,1.85.264,1.85,1.542,0,1.233-.617,1.718-1.938,1.718h-.925V121.1H316.8v-5.9Zm1.453,2.819c.969,0,1.409-.352,1.409-1.277s-.4-1.145-1.365-1.145h-.969v2.422Z" transform="translate(-248.313 -115.068)"/>
    <path id="Path_54" data-name="Path 54" class="cls-2" d="M329.6,115.2h3.039v.4h-2.555v2.2h2.334v.4h-2.334v2.422h2.555v.4H329.6Z" transform="translate(-255.475 -115.068)"/>
    <path id="Path_55" data-name="Path 55" class="cls-2" d="M342.538,115.2h.7l2.026,5.858h-.529l-.573-1.674h-2.51l-.573,1.674H340.6Zm1.5,3.788-.529-1.63c-.22-.661-.4-1.189-.573-1.806h0c-.176.617-.352,1.145-.573,1.806l-.529,1.63Z" transform="translate(-261.631 -115.068)"/>
    <path id="Path_56" data-name="Path 56" class="cls-2" d="M356,115.2h.661l2.114,3.744c.308.529.573,1.013.837,1.542h0c-.044-.529-.044-1.057-.044-1.542V115.2h.484v5.858h-.661l-2.114-3.744c-.308-.529-.573-1.013-.837-1.542h0c.044.529.044,1.057.044,1.542v3.744H356Z" transform="translate(-270.248 -115.068)"/>
    <path id="Path_57" data-name="Path 57" class="cls-2" d="M382.079,120.858a5.589,5.589,0,0,1-1.277.176c-1.5,0-2.2-.484-2.2-2.995s.793-3.039,2.246-3.039a5.2,5.2,0,0,1,1.233.176l-.088.4a4.464,4.464,0,0,0-1.145-.176c-1.145,0-1.762.4-1.762,2.6,0,2.246.573,2.643,1.762,2.643a4.788,4.788,0,0,0,1.145-.176Z" transform="translate(-282.894 -114.956)"/>
    <path id="Path_58" data-name="Path 58" class="cls-2" d="M391.7,115.2h3.039v.4h-2.555v2.2h2.334v.4h-2.334v2.422h2.555v.4H391.7Z" transform="translate(-290.225 -115.068)"/>
    <path id="Path_59" data-name="Path 59" class="cls-2" d="M404.1,115.2h.661l2.114,3.744c.308.529.573,1.013.837,1.542h0c-.044-.529-.044-1.057-.044-1.542V115.2h.484v5.858h-.661l-2.114-3.744c-.308-.529-.573-1.013-.837-1.542h0c.044.529.044,1.057.044,1.542v3.744H404.1Z" transform="translate(-297.163 -115.068)"/>
    <path id="Path_60" data-name="Path 60" class="cls-2" d="M419.962,115.7H418.2v-.4h4.052v.4H420.49v5.461h-.484V115.7Z" transform="translate(-305.053 -115.124)"/>
    <path id="Path_61" data-name="Path 61" class="cls-2" d="M432.044,115.2h1.542c1.365,0,1.894.308,1.894,1.409,0,1.057-.484,1.5-1.718,1.542l1.894,2.907h-.617l-1.85-2.863h-.661v2.863H432V115.2Zm1.542,2.643c1.1,0,1.409-.352,1.409-1.145,0-.881-.352-1.057-1.409-1.057h-1.013v2.2Z" transform="translate(-312.775 -115.068)"/>
    <path id="Path_62" data-name="Path 62" class="cls-2" d="M445.4,115.2h3.039v.4h-2.554v2.2h2.334v.4h-2.334v2.422h2.554v.4H445.4Z" transform="translate(-320.273 -115.068)"/>
    <path id="Path_63" data-name="Path 63" class="cls-2" d="M161.344,138.2h2.951v.4h-2.466v2.2h2.246v.4h-2.246v2.863H161.3V138.2Z" transform="translate(-161.3 -127.938)"/>
    <path id="Path_64" data-name="Path 64" class="cls-2" d="M174.1,144.022c-1.453,0-2.2-.484-2.2-3.039s.793-3.083,2.246-3.083,2.2.484,2.2,3.039S175.556,144.022,174.1,144.022Zm.044-5.682c-1.1,0-1.718.4-1.718,2.643s.617,2.643,1.718,2.643c1.145,0,1.718-.4,1.718-2.643S175.247,138.34,174.146,138.34Z" transform="translate(-167.231 -127.77)"/>
    <path id="Path_65" data-name="Path 65" class="cls-2" d="M187.244,138.2h1.541c1.365,0,1.894.308,1.894,1.409,0,1.057-.484,1.5-1.718,1.542l1.894,2.907h-.617l-1.85-2.863h-.661v2.863H187.2V138.2Zm1.541,2.643c1.1,0,1.409-.352,1.409-1.145,0-.881-.352-1.057-1.409-1.057h-1.013v2.2Z" transform="translate(-175.793 -127.938)"/>
    <path id="Path_66" data-name="Path 66" class="cls-2" d="M207.229,138.2h.793l1.145,3.568c.22.661.352,1.233.573,1.894h0c.176-.661.308-1.233.528-1.894l1.145-3.568h.793l.529,5.858h-.529l-.308-3.612c-.044-.661-.088-1.189-.132-1.894h0c-.176.661-.352,1.233-.573,1.894l-1.145,3.612h-.661l-1.145-3.612c-.22-.661-.4-1.277-.573-1.894h0c-.044.617-.088,1.233-.132,1.894l-.308,3.612H206.7Z" transform="translate(-186.704 -127.938)"/>
    <path id="Path_67" data-name="Path 67" class="cls-2" d="M225.884,138.144v3.7c0,1.189.264,1.85,1.586,1.85s1.542-.661,1.542-1.85v-3.7h.529V141.8c0,1.5-.484,2.29-2.07,2.29s-2.07-.749-2.07-2.246V138.1h.484Z" transform="translate(-197.168 -127.882)"/>
    <path id="Path_68" data-name="Path 68" class="cls-2" d="M240.2,138.2h.528v5.461h2.466v.44h-2.951v-5.9Z" transform="translate(-205.45 -127.938)"/>
    <path id="Path_69" data-name="Path 69" class="cls-2" d="M249.662,138.7H247.9v-.4h4.052v.4H250.19v5.461h-.484V138.7Z" transform="translate(-209.759 -127.994)"/>
    <path id="Path_70" data-name="Path 70" class="cls-2" d="M261.3,138.2h.529v5.858H261.3Z" transform="translate(-217.257 -127.938)"/>
    <path id="Path_71" data-name="Path 71" class="cls-2" d="M268.344,138.2h1.5c1.277,0,1.85.264,1.85,1.542,0,1.233-.617,1.718-1.938,1.718h-.925V144.1H268.3v-5.9Zm1.453,2.819c.969,0,1.409-.352,1.409-1.277s-.4-1.145-1.365-1.145h-.969v2.422Z" transform="translate(-221.174 -127.938)"/>
    <path id="Path_72" data-name="Path 72" class="cls-2" d="M279.738,138.2h.7l2.026,5.858h-.529l-.573-1.674h-2.51l-.573,1.674H277.8Zm1.453,3.788-.529-1.63c-.22-.661-.4-1.189-.573-1.806h0c-.176.617-.352,1.145-.573,1.806l-.529,1.63Z" transform="translate(-226.49 -127.938)"/>
    <path id="Path_73" data-name="Path 73" class="cls-2" d="M292.544,138.2h1.542c1.365,0,1.894.308,1.894,1.409,0,1.057-.484,1.5-1.718,1.542l1.894,2.907h-.617l-1.85-2.863h-.661v2.863H292.5V138.2Zm1.5,2.643c1.1,0,1.409-.352,1.409-1.145,0-.881-.352-1.057-1.409-1.057h-1.013v2.2Z" transform="translate(-234.715 -127.938)"/>
    <path id="Path_74" data-name="Path 74" class="cls-2" d="M305.062,138.7H303.3v-.4h4.052v.4H305.59v5.461h-.484V138.7Z" transform="translate(-240.759 -127.994)"/>
    <path id="Path_75" data-name="Path 75" class="cls-2" d="M316.794,141.723,314.9,138.2h.529l1.057,1.938c.22.44.352.7.573,1.1h0a8.651,8.651,0,0,1,.573-1.1l1.013-1.894h.529l-1.894,3.523V144.1h-.484Z" transform="translate(-247.25 -127.938)"/>
    <path id="Path_76" data-name="Path 76" class="cls-2" d="M335.644,138.2h1.718c1.674,0,2.334.484,2.334,2.907,0,2.378-.7,2.951-2.378,2.951H335.6V138.2Zm1.718,5.461c1.321,0,1.85-.4,1.85-2.51s-.529-2.51-1.85-2.51h-1.189v5.021Z" transform="translate(-258.833 -127.938)"/>
    <path id="Path_77" data-name="Path 77" class="cls-2" d="M350.2,138.2h3.039v.4h-2.555v2.2h2.334v.4h-2.334v2.422h2.555v.4H350.2Z" transform="translate(-267.002 -127.938)"/>
    <path id="Path_78" data-name="Path 78" class="cls-2" d="M362.129,138.2h.793l1.145,3.568c.22.661.352,1.233.573,1.894h0c.176-.661.308-1.233.529-1.894l1.145-3.568h.793l.529,5.858h-.529l-.308-3.612c-.044-.661-.088-1.189-.132-1.894h0c-.176.661-.352,1.233-.573,1.894l-1.145,3.612h-.661l-1.145-3.612c-.22-.661-.4-1.277-.573-1.894h0c-.044.617-.088,1.233-.132,1.894l-.308,3.612H361.6Z" transform="translate(-273.382 -127.938)"/>
    <path id="Path_79" data-name="Path 79" class="cls-2" d="M382.2,144.022c-1.453,0-2.2-.484-2.2-3.039s.793-3.083,2.246-3.083,2.2.484,2.2,3.039S383.656,144.022,382.2,144.022Zm0-5.682c-1.1,0-1.718.4-1.718,2.643s.617,2.643,1.718,2.643c1.145,0,1.718-.4,1.718-2.643S383.347,138.34,382.2,138.34Z" transform="translate(-283.678 -127.77)"/>
    <path id="Path_80" data-name="Path 80" class="cls-2" d="M398.279,143.858a5.59,5.59,0,0,1-1.277.176c-1.5,0-2.2-.484-2.2-2.995s.793-3.039,2.246-3.039a5.2,5.2,0,0,1,1.233.176l-.088.4a4.465,4.465,0,0,0-1.145-.176c-1.145,0-1.762.4-1.762,2.6,0,2.246.573,2.643,1.762,2.643a4.789,4.789,0,0,0,1.145-.176Z" transform="translate(-291.959 -127.826)"/>
    <path id="Path_81" data-name="Path 81" class="cls-2" d="M407.344,138.2h1.542c1.365,0,1.894.308,1.894,1.409,0,1.057-.484,1.5-1.718,1.542l1.894,2.907h-.617l-1.85-2.863h-.661v2.863H407.3V138.2Zm1.5,2.643c1.1,0,1.409-.352,1.409-1.145,0-.881-.352-1.057-1.409-1.057h-1.013v2.2Z" transform="translate(-298.954 -127.938)"/>
    <path id="Path_82" data-name="Path 82" class="cls-2" d="M420.338,138.2h.7l2.026,5.858h-.529l-.573-1.674h-2.51l-.573,1.674H418.4Zm1.5,3.788-.529-1.63c-.22-.661-.4-1.189-.573-1.806h0c-.176.617-.352,1.145-.573,1.806l-.529,1.63Z" transform="translate(-305.165 -127.938)"/>
    <path id="Path_83" data-name="Path 83" class="cls-2" d="M435.979,143.858a5.59,5.59,0,0,1-1.277.176c-1.5,0-2.2-.484-2.2-2.995s.793-3.039,2.246-3.039a5.2,5.2,0,0,1,1.233.176l-.088.4a4.464,4.464,0,0,0-1.145-.176c-1.145,0-1.762.4-1.762,2.6,0,2.246.573,2.643,1.762,2.643a4.788,4.788,0,0,0,1.145-.176Z" transform="translate(-313.055 -127.826)"/>
    <path id="Path_84" data-name="Path 84" class="cls-2" d="M445.094,141.723,443.2,138.2h.529l1.057,1.938c.22.44.352.7.573,1.1h0a8.655,8.655,0,0,1,.573-1.1l1.013-1.894h.529l-1.894,3.523V144.1h-.484Z" transform="translate(-319.042 -127.938)"/>
  </g>
  <path id="Path_85" data-name="Path 85" class="cls-3" d="M66,23.78,72.122,29.9l3.523-3.567L79.213,29.9l9.689-9.69L75.645,7,66,16.69l3.523,3.523Z" transform="translate(-976.932 -869.917)"/>
  <path id="Path_86" data-name="Path 86" class="cls-3" d="M72.122,66,66,72.122l3.523,3.523L66,79.213,75.645,88.9,88.9,75.645,79.213,66l-3.567,3.523Z" transform="translate(-976.932 -902.932)"/>
  <path id="Path_87" data-name="Path 87" class="cls-3" d="M29.9,72.122,23.78,66l-3.567,3.523L16.689,66,7,75.645,20.213,88.9l9.69-9.689-3.568-3.567Z" transform="translate(-943.917 -902.932)"/>
  <rect id="Rectangle_104" data-name="Rectangle 104" class="cls-3" width="2.863" height="2.863" transform="translate(-914.514 -827.254) rotate(-45)"/>
  <rect id="Rectangle_105" data-name="Rectangle 105" class="cls-3" width="2.863" height="2.863" transform="translate(-925.721 -838.498) rotate(-45)"/>
  <rect id="Rectangle_106" data-name="Rectangle 106" class="cls-3" width="8.677" height="8.677" transform="translate(-918.575 -838.479) rotate(-45)"/>
  <rect id="Rectangle_107" data-name="Rectangle 107" class="cls-3" width="2.863" height="2.863" transform="translate(-914.507 -849.675) rotate(-45)"/>
  <path id="Path_88" data-name="Path 88" class="cls-3" d="M23.78,29.9,29.9,23.78l-3.568-3.567L29.9,16.69,20.213,7,7,20.213l9.689,9.69,3.523-3.567Z" transform="translate(-943.917 -869.917)"/>
  <rect id="Rectangle_108" data-name="Rectangle 108" class="cls-3" width="2.863" height="2.863" transform="translate(-903.3 -838.492) rotate(-45)"/>
  <path id="Path_89" data-name="Path 89" class="cls-4" d="M73.687,0,62.5,11.231l1.542,1.542,9.645-9.69L86.944,16.3l-9.689,9.69-1.542,1.542-2.026,2.026-1.982-2.026-1.542,1.542,3.523,3.523,3.568-3.523L78.8,27.527,90.027,16.3Z" transform="translate(-974.973 -866)"/>
  <path id="Path_90" data-name="Path 90" class="cls-5" d="M73.687,50.9l-3.523,3.567-1.542,1.542L62.5,62.131l1.542,1.542,6.122-6.122,1.542-1.542,1.982-2.026,2.026,2.026,1.542-1.542Z" transform="translate(-974.973 -894.482)"/>
  <path id="Path_91" data-name="Path 91" class="cls-4" d="M57.551,36.091l-1.542-1.542-2.026-2.026L56.009,30.5,54.467,29,50.9,32.523l3.567,3.568,1.542,1.542,6.122,6.122,1.542-1.542Z" transform="translate(-968.482 -882.227)"/>
  <path id="Path_92" data-name="Path 92" class="cls-6" d="M29.068,12.773l-1.542-1.542L16.3,0,0,16.3,11.231,27.527l1.542-1.542L3.083,16.3,16.3,3.083l9.689,9.69,1.542,1.5L29.553,16.3l-2.026,2.026,1.542,1.542L32.592,16.3Z" transform="translate(-940 -866)"/>
  <path id="Path_93" data-name="Path 93" class="cls-5" d="M72.3,62.5l-1.542,1.542,9.689,9.645L67.2,86.944l-9.645-9.69-1.542-1.542-2.026-2.026,2.026-1.982-1.542-1.542L50.9,73.687l3.567,3.568L56.009,78.8,67.2,90.027l16.34-16.34Z" transform="translate(-968.482 -900.973)"/>
  <path id="Path_94" data-name="Path 94" class="cls-7" d="M54.305,70.164l-1.542-1.542L46.642,62.5,45.1,64.042l6.122,6.122,1.542,1.542,2.026,1.982-2.026,2.026,1.542,1.542,3.523-3.568Z" transform="translate(-965.237 -900.973)"/>
  <path id="Path_95" data-name="Path 95" class="cls-8" d="M25.985,70.763,16.3,80.453,3.083,67.2l9.689-9.645,1.5-1.542L16.3,53.983l2.026,2.026,1.542-1.542L16.3,50.9l-3.523,3.567-1.542,1.542L0,67.2l16.3,16.34L27.527,72.3Z" transform="translate(-940 -894.482)"/>
  <path id="Path_96" data-name="Path 96" class="cls-6" d="M42.213,45.1l-6.122,6.122-1.542,1.542L32.523,54.79,30.5,52.764,29,54.305l3.523,3.523,3.568-3.523,1.542-1.542,6.122-6.122Z" transform="translate(-956.227 -891.237)"/>
</svg>
