<?xml version="1.0" encoding="utf-8"?>
<!-- Generator: Adobe Illustrator 19.0.0, SVG Export Plug-In . SVG Version: 6.00 Build 0)  -->
<svg version="1.1" id="Group_34" xmlns="http://www.w3.org/2000/svg" xmlns:xlink="http://www.w3.org/1999/xlink" x="0px" y="0px"
	 viewBox="-198.1 295 613.5 76.8" style="enable-background:new -198.1 295 613.5 76.8;" xml:space="preserve">
<style type="text/css">
	.st0{fill:#636466;}
	.st1{fill:#939598;}
	.st2{fill:none;}
	.st3{fill:#25387B;}
	.st4{fill:#E01F27;}
	.st5{fill:#F47C26;}
	.st6{fill:#226FB7;}
	.st7{fill:#2270B8;}
	.st8{fill:#FF7C00;}
</style>
<g>
	<path id="Path_37" class="st0" d="M-127.2,307.5h16.7v3.8h-11.9v8.9h11v3.7h-11v9.8h11.9v3.8h-16.7V307.5z"/>
	<path id="Path_38" class="st0" d="M-104.8,307.5h16.7v3.8H-100v8.9h11v3.7h-11v9.8h11.9v3.8h-16.7V307.5z"/>
	<path id="Path_39" class="st0" d="M-64.6,337.1c-2.3,0.6-4.7,1-7.1,1c-8,0-11.7-2.7-11.7-15.4c0-12.6,4.3-15.6,12.1-15.6
		c2.3,0,4.5,0.3,6.7,0.9l-0.6,3.7c-1.9-0.5-3.8-0.8-5.8-0.8c-5.1,0-7.5,1.6-7.5,11.6c0,10.1,2.3,11.8,7.6,11.8
		c1.9,0,3.9-0.3,5.7-0.9L-64.6,337.1z"/>
	<path id="Path_40" class="st0" d="M-58.3,307.5h7.5l4.8,16.7c1,3.3,1.6,5.9,2.4,9.5h0.1c0.8-3.6,1.4-6.3,2.3-9.6l4.8-16.7h7.6
		l2.6,30.1h-5.1l-1.2-17.7c-0.2-3.2-0.3-5.9-0.4-9.2l0,0c-0.8,3.2-1.5,6-2.4,9.2l-4.9,17.7h-6.4l-4.9-17.7c-0.9-3.2-1.6-6.1-2.4-9.2
		h-0.1c-0.1,3.2-0.2,6-0.4,9.2l-1.2,17.7h-4.8L-58.3,307.5z"/>
	<path id="Path_41" class="st0" d="M-20.2,307.5h9.6c9.1,0,12.6,2.6,12.6,14.8c0,12.1-3.7,15.3-12.8,15.3h-9.4V307.5z M-10.8,333.8
		c5.6,0,7.8-1.8,7.8-11.3c0-9.6-2.1-11.1-7.8-11.1h-4.6v22.5L-10.8,333.8L-10.8,333.8z"/>
	<g id="Group_2" transform="translate(-868.958 -815.394)">
		<path id="Path_42" class="st1" d="M742,1161.2h3v0.4h-2.6v2.2h2.3v0.4h-2.3v2.4h2.6v0.4h-3V1161.2z"/>
		<path id="Path_43" class="st1" d="M748.7,1161.2h0.7l2,5.9h-0.5l-0.6-1.7h-2.5l-0.6,1.7h-0.5L748.7,1161.2z M750.2,1165l-0.5-1.6
			c-0.2-0.7-0.4-1.2-0.6-1.8l0,0c-0.2,0.6-0.4,1.1-0.6,1.8l-0.5,1.6H750.2z"/>
		<path id="Path_44" class="st1" d="M753.1,1166.6c0.5,0.1,0.9,0.2,1.4,0.2c1.1,0,1.5-0.4,1.5-1.1c0-0.6-0.3-0.8-1.5-1.4
			c-1.2-0.6-1.6-0.9-1.6-1.7c0-0.8,0.6-1.4,1.9-1.4c0.4,0,0.9,0.1,1.3,0.2l-0.1,0.4c-0.4-0.1-0.8-0.2-1.2-0.2c-1,0-1.5,0.4-1.5,1
			s0.2,0.8,1.4,1.3c1.2,0.6,1.6,0.9,1.6,1.7c0,1-0.7,1.6-2,1.6c-0.5,0-1-0.1-1.5-0.2L753.1,1166.6z"/>
		<path id="Path_45" class="st1" d="M759.7,1161.6h-1.8v-0.4h4.1v0.4h-1.8v5.5h-0.5L759.7,1161.6L759.7,1161.6z"/>
		<path id="Path_46" class="st1" d="M764.1,1161.2h3v0.4h-2.6v2.2h2.3v0.4h-2.3v2.4h2.6v0.4h-3V1161.2z"/>
		<path id="Path_47" class="st1" d="M769.6,1161.2h1.5c1.4,0,1.9,0.3,1.9,1.4c0,1.1-0.5,1.5-1.7,1.5l1.9,2.9h-0.6l-1.8-2.9h-0.7v2.9
			h-0.5L769.6,1161.2L769.6,1161.2z M771.1,1163.8c1.1,0,1.4-0.4,1.4-1.1c0-0.9-0.4-1.1-1.4-1.1h-1v2.2L771.1,1163.8z"/>
		<path id="Path_48" class="st1" d="M775.4,1161.2h0.7l2.1,3.7c0.3,0.5,0.6,1,0.8,1.5l0,0c0-0.5,0-1.1,0-1.5v-3.7h0.5v5.9h-0.7
			l-2.1-3.7c-0.3-0.5-0.6-1-0.8-1.5l0,0c0,0.5,0,1.1,0,1.5v3.7h-0.5V1161.2z"/>
		<path id="Path_49" class="st1" d="M785.6,1161.2h3v0.4h-2.6v2.2h2.3v0.4h-2.3v2.4h2.6v0.4h-3V1161.2z"/>
		<path id="Path_50" class="st1" d="M791.5,1161.2v3.7c0,1.2,0.3,1.8,1.6,1.8c1.3,0,1.5-0.7,1.5-1.8v-3.7h0.5v3.7
			c0,1.5-0.5,2.3-2.1,2.3s-2.1-0.7-2.1-2.2v-3.7L791.5,1161.2L791.5,1161.2z"/>
		<path id="Path_51" class="st1" d="M797.8,1161.2h1.5c1.4,0,1.9,0.3,1.9,1.4c0,1.1-0.5,1.5-1.7,1.5l1.9,2.9h-0.6l-1.8-2.9h-0.7v2.9
			h-0.5L797.8,1161.2L797.8,1161.2z M799.3,1163.8c1.1,0,1.4-0.4,1.4-1.1c0-0.9-0.4-1.1-1.4-1.1h-1v2.2L799.3,1163.8z"/>
		<path id="Path_52" class="st1" d="M805.6,1167.2c-1.5,0-2.2-0.5-2.2-3c0-2.6,0.8-3.1,2.2-3.1s2.2,0.5,2.2,3
			C807.9,1166.6,807.1,1167.2,805.6,1167.2z M805.6,1161.5c-1.1,0-1.7,0.4-1.7,2.6c0,2.2,0.6,2.6,1.7,2.6c1.1,0,1.7-0.4,1.7-2.6
			C807.4,1161.9,806.8,1161.5,805.6,1161.5z"/>
		<path id="Path_53" class="st1" d="M810.4,1161.2h1.5c1.3,0,1.9,0.3,1.9,1.5c0,1.2-0.6,1.7-1.9,1.7h-0.9v2.6h-0.5L810.4,1161.2
			L810.4,1161.2z M811.9,1164c1,0,1.4-0.4,1.4-1.3c0-0.9-0.4-1.1-1.4-1.1h-1v2.4H811.9z"/>
		<path id="Path_54" class="st1" d="M816,1161.2h3v0.4h-2.6v2.2h2.3v0.4h-2.3v2.4h2.6v0.4h-3V1161.2z"/>
		<path id="Path_55" class="st1" d="M822.8,1161.2h0.7l2,5.9H825l-0.6-1.7h-2.5l-0.6,1.7h-0.5L822.8,1161.2z M824.3,1165l-0.5-1.6
			c-0.2-0.7-0.4-1.2-0.6-1.8l0,0c-0.2,0.6-0.4,1.1-0.6,1.8l-0.5,1.6H824.3z"/>
		<path id="Path_56" class="st1" d="M827.7,1161.2h0.7l2.1,3.7c0.3,0.5,0.6,1,0.8,1.5l0,0c0-0.5,0-1.1,0-1.5v-3.7h0.5v5.9h-0.7
			l-2.1-3.7c-0.3-0.5-0.6-1-0.8-1.5l0,0c0,0.5,0,1.1,0,1.5v3.7h-0.5V1161.2z"/>
		<path id="Path_57" class="st1" d="M841.1,1166.9c-0.4,0.1-0.8,0.2-1.3,0.2c-1.5,0-2.2-0.5-2.2-3s0.8-3,2.2-3
			c0.4,0,0.8,0.1,1.2,0.2l-0.1,0.4c-0.4-0.1-0.8-0.2-1.1-0.2c-1.1,0-1.8,0.4-1.8,2.6c0,2.2,0.6,2.6,1.8,2.6c0.4,0,0.8-0.1,1.1-0.2
			L841.1,1166.9z"/>
		<path id="Path_58" class="st1" d="M843.4,1161.2h3v0.4h-2.6v2.2h2.3v0.4h-2.3v2.4h2.6v0.4h-3V1161.2z"/>
		<path id="Path_59" class="st1" d="M848.9,1161.2h0.7l2.1,3.7c0.3,0.5,0.6,1,0.8,1.5l0,0c0-0.5,0-1.1,0-1.5v-3.7h0.5v5.9h-0.7
			l-2.1-3.7c-0.3-0.5-0.6-1-0.8-1.5l0,0c0,0.5,0,1.1,0,1.5v3.7h-0.5V1161.2z"/>
		<path id="Path_60" class="st1" d="M856.8,1161.6h-1.8v-0.4h4.1v0.4h-1.8v5.5h-0.5L856.8,1161.6L856.8,1161.6z"/>
		<path id="Path_61" class="st1" d="M861.2,1161.2h1.5c1.4,0,1.9,0.3,1.9,1.4c0,1.1-0.5,1.5-1.7,1.5l1.9,2.9h-0.6l-1.8-2.9h-0.7v2.9
			h-0.5L861.2,1161.2L861.2,1161.2z M862.7,1163.8c1.1,0,1.4-0.4,1.4-1.1c0-0.9-0.4-1.1-1.4-1.1h-1v2.2L862.7,1163.8z"/>
		<path id="Path_62" class="st1" d="M867,1161.2h3v0.4h-2.6v2.2h2.3v0.4h-2.3v2.4h2.6v0.4h-3V1161.2z"/>
		<path id="Path_63" class="st1" d="M742,1171.3h3v0.4h-2.5v2.2h2.2v0.4h-2.2v2.9h-0.5L742,1171.3L742,1171.3z"/>
		<path id="Path_64" class="st1" d="M748.8,1177.3c-1.5,0-2.2-0.5-2.2-3c0-2.6,0.8-3.1,2.2-3.1s2.2,0.5,2.2,3
			C751,1176.8,750.2,1177.3,748.8,1177.3z M748.8,1171.6c-1.1,0-1.7,0.4-1.7,2.6s0.6,2.6,1.7,2.6c1.1,0,1.7-0.4,1.7-2.6
			S749.9,1171.6,748.8,1171.6L748.8,1171.6z"/>
		<path id="Path_65" class="st1" d="M753.4,1171.3h1.5c1.4,0,1.9,0.3,1.9,1.4c0,1.1-0.5,1.5-1.7,1.5l1.9,2.9h-0.6l-1.8-2.9h-0.7v2.9
			h-0.5L753.4,1171.3L753.4,1171.3z M754.9,1174c1.1,0,1.4-0.4,1.4-1.1c0-0.9-0.4-1.1-1.4-1.1h-1v2.2L754.9,1174z"/>
		<path id="Path_66" class="st1" d="M762.4,1171.3h0.8l1.1,3.6c0.2,0.7,0.4,1.2,0.6,1.9l0,0c0.2-0.7,0.3-1.2,0.5-1.9l1.1-3.6h0.8
			l0.5,5.9h-0.5l-0.3-3.6c0-0.7-0.1-1.2-0.1-1.9l0,0c-0.2,0.7-0.4,1.2-0.6,1.9l-1.1,3.6h-0.7l-1.1-3.6c-0.2-0.7-0.4-1.3-0.6-1.9l0,0
			c0,0.6-0.1,1.2-0.1,1.9l-0.3,3.6h-0.5L762.4,1171.3z"/>
		<path id="Path_67" class="st1" d="M770.6,1171.3v3.7c0,1.2,0.3,1.8,1.6,1.8c1.3,0,1.5-0.7,1.5-1.8v-3.7h0.5v3.7
			c0,1.5-0.5,2.3-2.1,2.3s-2.1-0.7-2.1-2.2v-3.7L770.6,1171.3L770.6,1171.3z"/>
		<path id="Path_68" class="st1" d="M776.7,1171.3h0.5v5.5h2.5v0.4h-3L776.7,1171.3L776.7,1171.3z"/>
		<path id="Path_69" class="st1" d="M781.8,1171.8h-1.8v-0.4h4.1v0.4h-1.8v5.5h-0.5L781.8,1171.8L781.8,1171.8z"/>
		<path id="Path_70" class="st1" d="M786,1171.3h0.5v5.9H786V1171.3z"/>
		<path id="Path_71" class="st1" d="M789.1,1171.3h1.5c1.3,0,1.8,0.3,1.8,1.5c0,1.2-0.6,1.7-1.9,1.7h-0.9v2.6H789L789.1,1171.3
			L789.1,1171.3z M790.5,1174.1c1,0,1.4-0.4,1.4-1.3c0-0.9-0.4-1.1-1.4-1.1h-1v2.4H790.5z"/>
		<path id="Path_72" class="st1" d="M795.2,1171.3h0.7l2,5.9h-0.5l-0.6-1.7h-2.5l-0.6,1.7h-0.5L795.2,1171.3z M796.6,1175.1
			l-0.5-1.6c-0.2-0.7-0.4-1.2-0.6-1.8l0,0c-0.2,0.6-0.4,1.1-0.6,1.8l-0.5,1.6H796.6z"/>
		<path id="Path_73" class="st1" d="M799.7,1171.3h1.5c1.4,0,1.9,0.3,1.9,1.4c0,1.1-0.5,1.5-1.7,1.5l1.9,2.9h-0.6l-1.8-2.9h-0.7v2.9
			h-0.5L799.7,1171.3L799.7,1171.3z M801.2,1174c1.1,0,1.4-0.4,1.4-1.1c0-0.9-0.4-1.1-1.4-1.1h-1v2.2L801.2,1174z"/>
		<path id="Path_74" class="st1" d="M806.2,1171.8h-1.8v-0.4h4.1v0.4h-1.8v5.5h-0.5L806.2,1171.8L806.2,1171.8z"/>
		<path id="Path_75" class="st1" d="M811.5,1174.8l-1.9-3.5h0.5l1.1,1.9c0.2,0.4,0.4,0.7,0.6,1.1l0,0c0.2-0.4,0.4-0.7,0.6-1.1l1-1.9
			h0.5l-1.9,3.5v2.3h-0.5L811.5,1174.8z"/>
		<path id="Path_76" class="st1" d="M818.7,1171.3h1.7c1.7,0,2.3,0.5,2.3,2.9c0,2.4-0.7,3-2.4,3h-1.7L818.7,1171.3L818.7,1171.3z
			 M820.4,1176.8c1.3,0,1.9-0.4,1.9-2.5s-0.5-2.5-1.9-2.5h-1.2v5L820.4,1176.8z"/>
		<path id="Path_77" class="st1" d="M825.1,1171.3h3v0.4h-2.6v2.2h2.3v0.4h-2.3v2.4h2.6v0.4h-3V1171.3z"/>
		<path id="Path_78" class="st1" d="M830.7,1171.3h0.8l1.1,3.6c0.2,0.7,0.4,1.2,0.6,1.9l0,0c0.2-0.7,0.3-1.2,0.5-1.9l1.1-3.6h0.8
			l0.5,5.9h-0.5l-0.3-3.6c0-0.7-0.1-1.2-0.1-1.9l0,0c-0.2,0.7-0.4,1.2-0.6,1.9l-1.1,3.6h-0.7l-1.1-3.6c-0.2-0.7-0.4-1.3-0.6-1.9l0,0
			c0,0.6-0.1,1.2-0.1,1.9l-0.3,3.6h-0.5L830.7,1171.3z"/>
		<path id="Path_79" class="st1" d="M840.4,1177.3c-1.5,0-2.2-0.5-2.2-3c0-2.6,0.8-3.1,2.2-3.1s2.2,0.5,2.2,3
			C842.7,1176.8,841.9,1177.3,840.4,1177.3z M840.4,1171.6c-1.1,0-1.7,0.4-1.7,2.6s0.6,2.6,1.7,2.6c1.1,0,1.7-0.4,1.7-2.6
			S841.6,1171.6,840.4,1171.6z"/>
		<path id="Path_80" class="st1" d="M848.2,1177.1c-0.4,0.1-0.8,0.2-1.3,0.2c-1.5,0-2.2-0.5-2.2-3s0.8-3,2.2-3
			c0.4,0,0.8,0.1,1.2,0.2l-0.1,0.4c-0.4-0.1-0.8-0.2-1.1-0.2c-1.1,0-1.8,0.4-1.8,2.6c0,2.2,0.6,2.6,1.8,2.6c0.4,0,0.8-0.1,1.1-0.2
			L848.2,1177.1z"/>
		<path id="Path_81" class="st1" d="M850.3,1171.3h1.5c1.4,0,1.9,0.3,1.9,1.4c0,1.1-0.5,1.5-1.7,1.5l1.9,2.9h-0.6l-1.8-2.9h-0.7v2.9
			h-0.5L850.3,1171.3L850.3,1171.3z M851.8,1174c1.1,0,1.4-0.4,1.4-1.1c0-0.9-0.4-1.1-1.4-1.1h-1v2.2L851.8,1174z"/>
		<path id="Path_82" class="st1" d="M857.1,1171.3h0.7l2,5.9h-0.5l-0.6-1.7h-2.5l-0.6,1.7h-0.5L857.1,1171.3z M858.6,1175.1
			l-0.5-1.6c-0.2-0.7-0.4-1.2-0.6-1.8l0,0c-0.2,0.6-0.4,1.1-0.6,1.8l-0.5,1.6H858.6z"/>
		<path id="Path_83" class="st1" d="M864.8,1177.1c-0.4,0.1-0.8,0.2-1.3,0.2c-1.5,0-2.2-0.5-2.2-3s0.8-3,2.2-3
			c0.4,0,0.8,0.1,1.2,0.2l-0.1,0.4c-0.4-0.1-0.8-0.2-1.1-0.2c-1.1,0-1.8,0.4-1.8,2.6c0,2.2,0.6,2.6,1.8,2.6c0.4,0,0.8-0.1,1.1-0.2
			L864.8,1177.1z"/>
		<path id="Path_84" class="st1" d="M868,1174.8l-1.9-3.5h0.5l1.1,1.9c0.2,0.4,0.4,0.7,0.6,1.1l0,0c0.2-0.4,0.4-0.7,0.6-1.1l1-1.9
			h0.5l-1.9,3.5v2.3H868L868,1174.8z"/>
	</g>
	<path id="Path_85" class="st2" d="M-169,314.9l6.1,6.1l3.5-3.6l3.6,3.6l9.7-9.7l-13.3-13.2l-9.6,9.7l3.5,3.5L-169,314.9z"/>
	<path id="Path_86" class="st2" d="M-162.9,324.1l-6.1,6.1l3.5,3.5l-3.5,3.6l9.6,9.7l13.3-13.3l-9.7-9.6l-3.6,3.5L-162.9,324.1z"/>
	<path id="Path_87" class="st2" d="M-172.1,330.2l-6.1-6.1l-3.6,3.5l-3.5-3.5l-9.7,9.6l13.2,13.3l9.7-9.7l-3.6-3.6L-172.1,330.2z"/>
	
		<rect id="Rectangle_104" x="-172" y="332.4" transform="matrix(-0.7071 0.7071 -0.7071 -0.7071 -55.164 690.4349)" class="st2" width="2.9" height="2.9"/>
	
		<rect id="Rectangle_105" x="-183.2" y="321.1" transform="matrix(-0.7071 0.7071 -0.7071 -0.7071 -82.2463 679.1649)" class="st2" width="2.9" height="2.9"/>
	
		<rect id="Rectangle_106" x="-174.9" y="318.2" transform="matrix(-0.7071 0.7071 -0.7071 -0.7071 -63.0158 671.2373)" class="st2" width="8.7" height="8.7"/>
	
		<rect id="Rectangle_107" x="-172" y="309.9" transform="matrix(-0.7071 0.7071 -0.7071 -0.7071 -71.0061 652.155)" class="st2" width="2.9" height="2.9"/>
	<path id="Path_88" class="st2" d="M-178.2,321l6.1-6.1l-3.6-3.6l3.6-3.5l-9.7-9.7l-13.2,13.2l9.7,9.7l3.5-3.6L-178.2,321z"/>
	
		<rect id="Rectangle_108" x="-160.8" y="321.1" transform="matrix(-0.7071 0.7071 -0.7071 -0.7071 -43.967 663.321)" class="st2" width="2.9" height="2.9"/>
	<path id="Path_89" class="st3" d="M-159.4,295l-11.2,11.2l1.5,1.5l9.6-9.7l13.3,13.2l-9.7,9.7l-1.5,1.5l-2,2l-2-2l-1.5,1.5l3.5,3.5
		l3.6-3.5l1.5-1.5l11.2-11.2L-159.4,295z"/>
	<path id="Path_90" class="st4" d="M-159.4,317.5l-3.5,3.6l-1.5,1.5l-6.1,6.1l1.5,1.5l6.1-6.1l1.5-1.5l2-2l2,2l1.5-1.5L-159.4,317.5
		z"/>
	<path id="Path_91" class="st3" d="M-169,314.9l-1.5-1.5l-2-2l2-2l-1.5-1.5l-3.6,3.5l3.6,3.6l1.5,1.5l6.1,6.1l1.5-1.5L-169,314.9z"
		/>
	<path id="Path_92" class="st5" d="M-169,307.8l-1.5-1.5l-11.2-11.2l-16.3,16.3l11.2,11.2l1.5-1.5l-9.7-9.7l13.2-13.2l9.7,9.7
		l1.5,1.5l2,2l-2,2l1.5,1.5l3.5-3.6L-169,307.8z"/>
	<path id="Path_93" class="st4" d="M-154.3,322.6l-1.5,1.5l9.7,9.6l-13.2,13.3l-9.6-9.7l-1.5-1.5l-2-2l2-2l-1.5-1.5l-3.6,3.5
		l3.6,3.6l1.5,1.5l11.2,11.2l16.3-16.3L-154.3,322.6z"/>
	<path id="Path_94" class="st6" d="M-169,330.2l-1.5-1.5l-6.1-6.1l-1.5,1.5l6.1,6.1l1.5,1.5l2,2l-2,2l1.5,1.5l3.5-3.6L-169,330.2z"
		/>
	<path id="Path_95" class="st7" d="M-172.1,337.3l-9.7,9.7l-13.2-13.3l9.7-9.6l1.5-1.5l2-2l2,2l1.5-1.5l-3.6-3.6l-3.5,3.6l-1.5,1.5
		l-11.2,11.2l16.3,16.3l11.2-11.2L-172.1,337.3z"/>
	<path id="Path_96" class="st5" d="M-172.1,314.9l-6.1,6.1l-1.5,1.5l-2,2l-2-2l-1.5,1.5l3.5,3.5l3.6-3.5l1.5-1.5l6.1-6.1
		L-172.1,314.9z"/>
</g>
<g>
	<polygon class="st8" points="29.6,295.3 31.5,295.3 42,314 42,295.3 43.8,295.3 43.8,317.1 41.9,317.1 31.3,298.4 31.3,317.1 
		29.6,317.1 	"/>
	<path class="st8" d="M48.9,309.7c0,4,1.8,6.3,4.4,6.3c2.1,0,3.6-1.4,4-3.7h1.6c-0.3,3.2-2.5,5.3-5.6,5.3c-3.6,0-5.9-3-5.9-8.2
		c0-5.3,2.3-8.4,5.9-8.4c3.6,0,5.8,2.9,5.8,8v0.6L48.9,309.7L48.9,309.7L48.9,309.7z M57.4,308.1c-0.1-3.5-1.7-5.5-4.2-5.5
		c-2.4,0-4.1,2.1-4.3,5.5L57.4,308.1L57.4,308.1z"/>
	<path class="st8" d="M64.3,301.3h2.5v1.5h-2.5v11.5c0,1.2,0.1,1.7,1,1.7c0.4,0,0.9-0.2,1.5-0.3v1.5c-0.7,0.2-1.3,0.3-1.9,0.3
		c-1.7,0-2.1-1-2.1-3.2v-11.5h-1.9v-1.5h1.9v-4.5h1.6C64.3,296.8,64.3,301.3,64.3,301.3z"/>
	<path class="st8" d="M69.7,295.3h1.6v8.5c1-1.9,2.5-2.9,4.5-2.9c1.8,0,3.3,0.9,4,2.2c0.5,1,0.5,2.4,0.5,4.3v9.6h-1.6v-9.6
		c0-3.4-0.5-5-3.3-5c-2.5,0-4.2,2-4.2,5.3v9.3h-1.6V295.3z"/>
	<path class="st8" d="M85.1,309.7c0,4,1.8,6.3,4.4,6.3c2.1,0,3.7-1.4,4-3.7H95c-0.3,3.2-2.5,5.3-5.6,5.3c-3.6,0-5.9-3-5.9-8.2
		c0-5.3,2.3-8.4,5.9-8.4c3.6,0,5.8,2.9,5.8,8v0.6L85.1,309.7L85.1,309.7L85.1,309.7z M93.5,308.1c-0.1-3.5-1.7-5.5-4.2-5.5
		c-2.4,0-4.1,2.1-4.3,5.5L93.5,308.1L93.5,308.1z"/>
	<path class="st8" d="M98.3,301.3h1.5v2.8c0.8-2.2,2.2-3.2,4.2-3.2h0.2v1.9H104c-2.7,0-4.1,1.9-4.1,5.5v8.8h-1.6V301.3z"/>
	<rect x="106.9" y="295.3" class="st8" width="1.6" height="21.9"/>
	<path class="st8" d="M116.3,317.5c-2.8,0-4.5-1.8-4.5-4.6c0-1.8,0.8-3.2,2.2-3.9c1.4-0.8,3.1-0.8,4.9-1c1.9-0.5,2.4-0.4,2.4-2
		c0-2.4-0.9-3.4-3.4-3.4c-2.4,0-3.7,1.2-3.8,3.5h-1.5c0.1-3.1,2.1-5.1,5.4-5.1c3.2,0,4.9,1.6,4.9,4.8v8.4v0.2c0,1,0,1.5,1,1.5
		c0.1,0,0.3,0,0.6,0v1.4c-0.5,0.1-0.9,0.2-1.1,0.2c-1.3,0-1.9-0.7-1.9-2.2v-0.2C119.8,316.6,118.2,317.5,116.3,317.5 M116.4,309.6
		c-2,0.6-3,1.7-3,3.3c0,1.8,1.2,3,3,3c2.8,0,4.8-1.8,4.8-4.9l0-2.2C120,309.3,118.4,309.4,116.4,309.6"/>
	<path class="st8" d="M126.8,301.3h1.5v2.5c1-1.9,2.5-2.9,4.5-2.9c1.9,0,3.3,0.8,4.1,2.2c0.5,1,0.5,2.2,0.5,3.9v0.5v9.6h-1.6v-9.8
		c0-3.2-0.6-4.7-3.4-4.7c-2.5,0-4.1,2-4.1,5.3v9.3h-1.6L126.8,301.3L126.8,301.3z"/>
	<path class="st8" d="M152.8,317.1h-1.6v-2.7c-1,2.1-2.7,3.1-4.8,3.1c-3.6,0-5.9-3.1-5.9-8.3c0-5.2,2.4-8.3,6-8.3
		c2.1,0,3.7,1.1,4.7,3.1v-8.8h1.6C152.8,295.3,152.8,317.1,152.8,317.1z M146.8,315.9c2.9,0,4.6-2.3,4.6-6.7c0-4.3-1.7-6.7-4.6-6.7
		c-2.9,0-4.6,2.4-4.6,6.7C142.2,313.5,143.9,315.9,146.8,315.9"/>
	<path class="st8" d="M157.8,312.2c0,2.2,1.5,3.7,3.6,3.7c2.3,0,3.6-1.2,3.6-2.9c0-1.9-1.3-2.3-3.6-2.9c-3.2-0.9-4.9-1.8-4.9-4.5
		c0-2.7,1.9-4.6,4.7-4.6c3,0,4.9,1.9,5.1,5h-1.6c-0.1-2.1-1.4-3.4-3.5-3.4c-1.9,0-3,1.1-3,2.7c0,2.3,1.6,2.5,4.4,3.3
		c2.9,0.8,4.1,1.9,4.1,4.4c0,2.6-2,4.5-5.2,4.5c-3.2,0-5.2-2.1-5.3-5.3L157.8,312.2L157.8,312.2z"/>
	<rect x="177.7" y="295.3" width="1.7" height="21.9"/>
	<path d="M183.8,301.3h1.5v2.5c1-1.9,2.5-2.9,4.5-2.9c1.9,0,3.3,0.8,4.1,2.2c0.5,1,0.5,2.2,0.5,3.9v0.5v9.6h-1.6v-9.8
		c0-3.2-0.6-4.7-3.4-4.7c-2.5,0-4.1,2-4.1,5.3v9.3h-1.6V301.3z"/>
	<path d="M199.3,312.2c0,2.2,1.5,3.7,3.6,3.7c2.3,0,3.6-1.2,3.6-2.9c0-1.9-1.2-2.3-3.6-2.9c-3.2-0.9-4.9-1.8-4.9-4.5
		c0-2.7,1.9-4.6,4.7-4.6c3,0,4.9,1.9,5.1,5h-1.6c-0.1-2.1-1.4-3.4-3.5-3.4c-1.9,0-3,1.1-3,2.7c0,2.3,1.6,2.5,4.4,3.3
		c2.9,0.8,4.1,1.9,4.1,4.4c0,2.6-2,4.5-5.2,4.5c-3.2,0-5.2-2.1-5.3-5.3L199.3,312.2L199.3,312.2z"/>
	<path d="M213.5,301.3h2.5v1.5h-2.5v11.5c0,1.2,0.1,1.7,1,1.7c0.4,0,0.9-0.2,1.5-0.3v1.5c-0.7,0.2-1.3,0.3-1.9,0.3
		c-1.7,0-2.1-1-2.1-3.2v-11.5h-1.9v-1.5h1.9v-4.5h1.6L213.5,301.3L213.5,301.3z"/>
	<path d="M219,295.3h1.6v2.7H219V295.3z M219,301.3h1.6v15.8H219V301.3z"/>
	<path d="M226.7,301.3h2.5v1.5h-2.5v11.5c0,1.2,0.1,1.7,1,1.7c0.4,0,0.9-0.2,1.5-0.3v1.5c-0.7,0.2-1.3,0.3-1.9,0.3
		c-1.7,0-2.1-1-2.1-3.2v-11.5h-1.9v-1.5h1.9v-4.5h1.6L226.7,301.3L226.7,301.3z"/>
	<path d="M242.6,317.1h-1.5v-2.5c-1,2-2.5,2.9-4.5,2.9c-3.1,0-4.6-1.9-4.6-5.6v-10.6h1.6v10.2c0,3,0.8,4.4,3.3,4.4
		c2.6,0,4.2-2,4.2-5.3v-9.3h1.6L242.6,317.1L242.6,317.1z"/>
	<path d="M248.6,301.3h2.5v1.5h-2.5v11.5c0,1.2,0.1,1.7,1,1.7c0.4,0,0.9-0.2,1.5-0.3v1.5c-0.7,0.2-1.3,0.3-1.9,0.3
		c-1.7,0-2.1-1-2.1-3.2v-11.5h-1.9v-1.5h1.9v-4.5h1.6L248.6,301.3L248.6,301.3z"/>
	<path d="M254.9,309.7c0,4,1.8,6.3,4.4,6.3c2.1,0,3.7-1.4,4-3.7h1.6c-0.3,3.2-2.5,5.3-5.6,5.3c-3.6,0-5.9-3-5.9-8.2
		c0-5.3,2.3-8.4,5.9-8.4c3.6,0,5.8,2.9,5.8,8v0.6L254.9,309.7L254.9,309.7L254.9,309.7z M263.4,308.1c-0.1-3.5-1.7-5.5-4.2-5.5
		c-2.4,0-4.1,2.1-4.3,5.5H263.4z"/>
	<path d="M276.3,302.8h-2v-1.5h2v-2.9c0-2.4,1-3.4,3.2-3.4c0.3,0,0.5,0,0.8,0.1v1.6c-0.3,0-0.6-0.1-0.9-0.1c-1.2,0-1.6,0.6-1.6,2
		v2.7h2.5v1.5h-2.5v14.3h-1.6L276.3,302.8L276.3,302.8z"/>
	<path d="M288.3,300.9c3.9,0,6.2,3,6.2,8.3c0,5.3-2.3,8.3-6.2,8.3c-3.9,0-6.2-3-6.2-8.3C282.2,303.9,284.4,300.9,288.3,300.9
		 M288.3,315.9c2.9,0,4.6-2.3,4.6-6.7c0-4.3-1.7-6.7-4.6-6.7c-2.9,0-4.6,2.4-4.6,6.7C283.8,313.6,285.5,315.9,288.3,315.9"/>
	<path d="M297.7,301.3h1.5v2.8c0.8-2.2,2.2-3.2,4.2-3.2h0.2v1.9h-0.2c-2.7,0-4.1,1.9-4.1,5.5v8.8h-1.6L297.7,301.3L297.7,301.3z"/>
	<path d="M196.7,338.8h-5.9l7.2,23.7c0.1,0.2,0.1,0.5,0.1,0.7c0,2.3-1.1,3.5-3.2,3.5c-0.3,0-0.8,0-1.2-0.1v5.1
		c0.9,0.1,1.7,0.2,2.3,0.2c3.9,0,5.3-1.4,6.5-5.4l1-3.5L196.7,338.8z"/>
	<path d="M402.2,338.8h-5.9l7.2,23.7c0.1,0.2,0.1,0.5,0.1,0.7c0,2.3-1.1,3.5-3.2,3.5c-0.3,0-0.8,0-1.2-0.1v5.1
		c0.9,0.1,1.7,0.2,2.3,0.2c3.9,0,5.3-1.4,6.5-5.4l1-3.5L402.2,338.8z"/>
	<path class="st8" d="M410,344.8c1.4-6.1,5.4-10.1,5.4-10.1s1.7,5.8,0.3,11.9c-1.4,6.1-5.4,10.1-5.4,10.1S408.6,350.8,410,344.8"/>
	<polygon points="29.6,330.5 37.9,330.5 43.3,354.7 48.6,330.5 56.9,330.5 56.9,362.2 51.7,362.2 51.7,336.7 46.2,362.2 40.5,362.2 
		34.9,336.7 34.9,362.2 29.6,362.2 	"/>
	<path d="M80.4,362.2h-5.3v-2.8c-1.5,2.2-3.6,3.4-6.1,3.4c-4.4,0-6.6-2.7-6.6-8.1v-16h5.4V353c0,3.2,0.8,4.6,3.1,4.6
		c2.5,0,4.1-1.9,4.1-4.9v-13.8h5.4C80.4,338.8,80.4,362.2,80.4,362.2z"/>
	<rect x="85.6" y="330.5" width="5.4" height="31.7"/>
	<path d="M102.1,362.5c-4.4,0-5.4-1.8-5.4-6.7v-12.7h-2.6v-4.4h2.6v-6.4h5.3v6.4h3.1v4.4H102v13c0,1.2,0.3,1.5,1.8,1.5h1.3v4.7
		C103.6,362.5,102.6,362.5,102.1,362.5"/>
	<path d="M108.7,330.5h5.4v5.7h-5.4V330.5z M108.7,338.8h5.4v23.4h-5.4V338.8z"/>
	<path d="M119.4,338.8h5.1v3.2c1.6-2.7,3.4-4,6-4c4.9,0,8.3,4.9,8.3,12.4c0,7.7-3.5,12.6-8.2,12.6c-2.6,0-4.6-1.3-5.9-3.7v12.3h-5.2
		L119.4,338.8L119.4,338.8z M129,343.4c-2.8,0-4.4,2.5-4.4,7.3c0,4.5,1.7,6.9,4.5,6.9c2.6,0,4.3-2.6,4.3-6.9
		C133.4,345.9,131.8,343.4,129,343.4"/>
	<path d="M147.8,363.1c-3.9,0-6.1-2.6-6.1-7.5c0-4.6,2.1-6.6,6.8-7.5c4.2-0.7,5.6-0.4,5.6-2.6c0-1.9-1-2.6-3.3-2.6
		c-2.2,0-3.4,1.1-3.4,2.9v0.4h-5v-0.4c0-4.8,3-7.7,8.2-7.7c5.7,0,8.7,2.4,8.7,6.6v13.3c0,1.7,0.2,2.7,1.1,3.3v1.1h-5.6
		c-0.4-0.8-0.6-1.8-0.6-2.9C153,361.8,150.7,363.1,147.8,363.1 M149.4,352.3c-1.7,0.6-2.5,1.3-2.5,3.1c0,1.7,1,2.8,2.7,2.8
		c2.9,0,4.7-2,4.7-5.3v-2.2C152.2,351.8,150.4,352,149.4,352.3"/>
	<path d="M164.1,338.8h5v4c1.4-3.2,3.2-4.7,5.8-4.7c0.3,0,0.5,0,0.8,0v6.3h-1.8c-2.9,0-4.4,1.8-4.4,5.3v12.4h-5.4V338.8z"/>
	<path d="M185.8,362.5c-4.4,0-5.4-1.8-5.4-6.7v-12.7h-2.6v-4.4h2.6v-6.4h5.3v6.4h3.1v4.4h-3.1v13c0,1.2,0.3,1.5,1.8,1.5h1.3v4.7
		C187.4,362.5,186.3,362.5,185.8,362.5"/>
	<path d="M213.4,330.5H224c8.3,0,12.4,5.2,12.4,15.9c0,5.9-1.6,10.4-4.4,13c-2.6,2.5-5.6,2.8-9.5,2.8h-9.1L213.4,330.5L213.4,330.5z
		 M223.4,356.5c5.2,0,7.4-3,7.4-10.1c0-7.1-2.1-10.3-6.7-10.3h-5.2v20.4H223.4z"/>
	<path d="M258.5,355.1c-1.1,4.9-4.5,7.9-9.3,7.9c-5.7,0-9.4-4.8-9.4-12.7c0-7.7,3.6-12.4,9.4-12.4c6.1,0,9.6,4.5,9.6,12.6
		c0,0.5,0,1.1,0,1.6h-13.4c0.2,3.7,1.5,5.6,4.2,5.6c1.8,0,3-0.8,3.7-2.6L258.5,355.1L258.5,355.1z M253.2,348.1
		c-0.1-3.2-1.5-4.8-4-4.8c-2.3,0-3.7,1.7-3.9,4.8H253.2z"/>
	<path d="M262.7,338.8h5.1v2.6c1.5-2.2,3.3-3.3,5.6-3.3c2.5,0,4.3,1.1,5.6,3.4c1.4-2.3,3.3-3.4,5.7-3.4c4,0,6.6,2.9,6.6,7.7v16.4
		h-5.3v-15.1c0-2.3-1.1-3.6-3-3.6c-2,0-3.4,1.7-3.4,4.5v14.2h-5.3v-15c0-2.3-1.1-3.6-2.9-3.6c-2,0-3.4,1.7-3.4,4.5v14.2h-5.3V338.8z
		"/>
	<path d="M305.4,338c6.3,0,10.2,4.7,10.2,12.5c0,7.8-3.9,12.5-10.2,12.5c-6.3,0-10.2-4.7-10.2-12.5C295.2,342.7,299.1,338,305.4,338
		 M305.4,357.8c3,0,4.7-2.6,4.7-7.3c0-4.7-1.7-7.2-4.7-7.2c-3,0-4.7,2.6-4.7,7.2C300.6,355.2,302.4,357.8,305.4,357.8"/>
	<path d="M337,353.4c-0.5,6-4,9.6-9.1,9.6c-5.8,0-9.3-4.6-9.3-12.5c0-7.8,3.6-12.5,9.5-12.5c5.2,0,8.5,3.4,8.9,9.1h-5.3
		c-0.3-2.5-1.5-3.8-3.5-3.8c-2.7,0-4,2.5-4,7.3c0,4.5,1.4,7,4,7c2,0,3.2-1.4,3.6-4.2L337,353.4L337,353.4z"/>
	<path d="M340.8,338.8h5v4c1.4-3.2,3.2-4.7,5.8-4.7c0.3,0,0.5,0,0.8,0v6.3h-1.8c-2.9,0-4.4,1.8-4.4,5.3v12.4h-5.4L340.8,338.8
		L340.8,338.8z"/>
	<path d="M360.7,363.1c-3.9,0-6.1-2.6-6.1-7.5c0-4.6,2.1-6.6,6.8-7.5c4.2-0.7,5.6-0.4,5.6-2.6c0-1.9-1-2.6-3.3-2.6
		c-2.2,0-3.4,1.1-3.4,2.9v0.4h-5v-0.4c0-4.8,3-7.7,8.2-7.7c5.7,0,8.7,2.4,8.7,6.6v13.3c0,1.7,0.2,2.7,1.1,3.3v1.1h-5.6
		c-0.4-0.8-0.6-1.8-0.6-2.9C365.8,361.8,363.6,363.1,360.7,363.1 M362.3,352.3c-1.7,0.6-2.5,1.3-2.5,3.1c0,1.7,1,2.8,2.6,2.8
		c2.9,0,4.7-2,4.7-5.3v-2.2C365,351.8,363.3,352,362.3,352.3"/>
	<path d="M394.7,353.4c-0.5,6-4,9.6-9.1,9.6c-5.8,0-9.3-4.6-9.3-12.5c0-7.8,3.6-12.5,9.5-12.5c5.2,0,8.5,3.4,8.9,9.1h-5.3
		c-0.3-2.5-1.5-3.8-3.5-3.8c-2.7,0-4,2.5-4,7.3c0,4.5,1.4,7,4,7c2,0,3.2-1.4,3.6-4.2L394.7,353.4L394.7,353.4z"/>
</g>
</svg>
