<svg width="1249.907421875px" height="178.397509765625px" xmlns="http://www.w3.org/2000/svg" viewBox="-374.9537109375 -14.198754882812494 1249.907421875 178.397509765625" style="background: rgba(40, 41, 47, 0);" preserveAspectRatio="xMidYMid"><defs><filter id="editing-extrusion" x="-100%" y="-100%" width="300%" height="300%"><feFlood result="color1" flood-color="#0a0a0a"></feFlood><feConvolveMatrix order="2,2" divisor="1" kernelMatrix="1 0 0 1" in="SourceAlpha" result="extrude"></feConvolveMatrix><feComposite in="color1" in2="extrude" result="comp-extrude" operator="in"></feComposite><feOffset dx="1" dy="1" in="comp-extrude" result="offset-extrude"></feOffset><feMerge><feMergeNode in="offset-extrude"></feMergeNode><feMergeNode in="SourceGraphic"></feMergeNode></feMerge></filter></defs><g filter="url(#editing-extrusion)"><g transform="translate(-201.18748779594898, 121.34375)"><path d="M40.70-46.20L40.70-46.20L40.70-46.20Q42.20-49.20 42.20-52L42.20-52L42.20-52Q42.20-54.80 41.90-56.35L41.90-56.35L41.90-56.35Q41.60-57.90 40.90-59.10L40.90-59.10L40.90-59.10Q39.40-61.70 36.40-61.70L36.40-61.70L36.40-61.70Q32.70-61.70 29.70-59L29.70-59L29.70-59Q26.50-56.20 26.50-51.80L26.50-51.80L26.50-51.80Q26.50-49 28.45-46.85L28.45-46.85L28.45-46.85Q30.40-44.70 33.40-42.70L33.40-42.70L33.40-42.70Q36.40-40.70 39.80-38.70L39.80-38.70L39.80-38.70Q43.20-36.70 46.20-34.30L46.20-34.30L46.20-34.30Q53.10-28.80 53.10-21.40L53.10-21.40L53.10-21.40Q53.10-16.40 50.45-12.15L50.45-12.15L50.45-12.15Q47.80-7.90 43.40-4.80L43.40-4.80L43.40-4.80Q33.80 2 21.10 2L21.10 2L21.10 2Q10.80 2 5.50-1.35L5.50-1.35L5.50-1.35Q0.20-4.70 0.20-9.80L0.20-9.80L0.20-9.80Q0.20-18.90 7.30-21.20L7.30-21.20L7.30-21.20Q9.30-21.90 12.35-21.90L12.35-21.90L12.35-21.90Q15.40-21.90 18.90-20.60L18.90-20.60L18.90-20.60Q17.30-16.50 17.30-12.80L17.30-12.80L17.30-12.80Q17.30-4.80 23-4.80L23-4.80L23-4.80Q26.70-4.80 29.75-7.50L29.75-7.50L29.75-7.50Q32.80-10.20 32.80-13.25L32.80-13.25L32.80-13.25Q32.80-16.30 30.85-18.50L30.85-18.50L30.85-18.50Q28.90-20.70 26-22.45L26-22.45L26-22.45Q23.10-24.20 19.75-25.90L19.75-25.90L19.75-25.90Q16.40-27.60 13.50-30L13.50-30L13.50-30Q6.70-35.50 6.70-44.30L6.70-44.30L6.70-44.30Q6.70-50 9.50-54.45L9.50-54.45L9.50-54.45Q12.30-58.90 16.80-61.90L16.80-61.90L16.80-61.90Q25.80-68 36.85-68L36.85-68L36.85-68Q47.90-68 53.25-64.70L53.25-64.70L53.25-64.70Q58.60-61.40 58.60-55.80L58.60-55.80L58.60-55.80Q58.60-50.90 54.80-47.80L54.80-47.80L54.80-47.80Q51.50-45.20 47.50-45.20L47.50-45.20L47.50-45.20Q43.50-45.20 40.70-46.20ZM62.30-10L62.30-10L62.30-10Q62.30-12.70 63.70-19.50L63.70-19.50L69-46.50L63.10-46.50L63.50-49.50L63.50-49.50Q75.50-53.10 87.10-61.90L87.10-61.90L91.90-61.90L89.50-51L97.30-51L96.40-46.50L88.70-46.50L83.60-19.50L83.60-19.50Q82.30-13.30 82.30-11.20L82.30-11.20L82.30-11.20Q82.30-6.40 86.50-5.40L86.50-5.40L86.50-5.40Q85.50-2 81.90 0L81.90 0L81.90 0Q78.30 2 73.20 2L73.20 2L73.20 2Q68.10 2 65.20-1.20L65.20-1.20L65.20-1.20Q62.30-4.40 62.30-10ZM128.10-28.10L128.10-28.10L128.10-28.10Q131.70-34.50 131.70-41L131.70-41L131.70-41Q131.70-45.30 128.60-45.30L128.60-45.30L128.60-45.30Q126.20-45.30 123.70-41.20L123.70-41.20L123.70-41.20Q121.10-37.10 120.30-31.80L120.30-31.80L115.10 0L94.40 2L104.60-51L121.10-53L119.30-42.90L119.30-42.90Q124.20-53 135.20-53L135.20-53L135.20-53Q141-53 144.15-50L144.15-50L144.15-50Q147.30-47 147.30-40.85L147.30-40.85L147.30-40.85Q147.30-34.70 143.25-30.80L143.25-30.80L143.25-30.80Q139.20-26.90 132.30-26.90L132.30-26.90L132.30-26.90Q129.30-26.90 128.10-28.10ZM153.25-3L153.25-3L153.25-3Q150.90-5.60 149.85-9.70L149.85-9.70L149.85-9.70Q148.80-13.80 148.80-20.50L148.80-20.50L148.80-20.50Q148.80-27.20 151.10-33.30L151.10-33.30L151.10-33.30Q153.40-39.40 157.60-43.80L157.60-43.80L157.60-43.80Q166.20-53 180.40-53L180.40-53L180.40-53Q185.50-53 189.20-51.30L189.20-51.30L206.30-53L198.90-14L198.90-14Q198.60-12.80 198.60-10.60L198.60-10.60L198.60-10.60Q198.60-8.40 199.95-7L199.95-7L199.95-7Q201.30-5.60 203.30-5.40L203.30-5.40L203.30-5.40Q202.30-2 198.65 0L198.65 0L198.65 0Q195 2 190.90 2L190.90 2L190.90 2Q186.80 2 184.05 0.45L184.05 0.45L184.05 0.45Q181.30-1.10 180.50-3.70L180.50-3.70L180.50-3.70Q178.90-1.20 175.50 0.40L175.50 0.40L175.50 0.40Q172.10 2 167.55 2L167.55 2L167.55 2Q163 2 159.30 0.80L159.30 0.80L159.30 0.80Q155.60-0.40 153.25-3ZM174.35-43.60L174.35-43.60L174.35-43.60Q173.20-41.80 172.20-38.75L172.20-38.75L172.20-38.75Q171.20-35.70 169.55-27.55L169.55-27.55L169.55-27.55Q167.90-19.40 167.90-13.60L167.90-13.60L167.90-13.60Q167.90-7.80 168.80-6.10L168.80-6.10L168.80-6.10Q169.70-4.40 171.30-4.40L171.30-4.40L171.30-4.40Q174.50-4.40 176.85-7.45L176.85-7.45L176.85-7.45Q179.20-10.50 180.10-15.90L180.10-15.90L185.40-45.20L185.40-45.20Q183.30-47 180.85-47L180.85-47L180.85-47Q178.40-47 176.95-46.20L176.95-46.20L176.95-46.20Q175.50-45.40 174.35-43.60ZM213.30-10L213.30-10L213.30-10Q213.30-12.70 214.70-19.50L214.70-19.50L220-46.50L214.10-46.50L214.50-49.50L214.50-49.50Q226.50-53.10 238.10-61.90L238.10-61.90L242.90-61.90L240.50-51L248.30-51L247.40-46.50L239.70-46.50L234.60-19.50L234.60-19.50Q233.30-13.30 233.30-11.20L233.30-11.20L233.30-11.20Q233.30-6.40 237.50-5.40L237.50-5.40L237.50-5.40Q236.50-2 232.90 0L232.90 0L232.90 0Q229.30 2 224.20 2L224.20 2L224.20 2Q219.10 2 216.20-1.20L216.20-1.20L216.20-1.20Q213.30-4.40 213.30-10ZM287.90-16.90L287.90-16.90L287.90-16.90Q290.40-15.20 290.40-11.45L290.40-11.45L290.40-11.45Q290.40-7.70 288.50-5.30L288.50-5.30L288.50-5.30Q286.60-2.90 283.50-1.30L283.50-1.30L283.50-1.30Q277.10 2 270.20 2L270.20 2L270.20 2Q263.30 2 259.25 0.50L259.25 0.50L259.25 0.50Q255.20-1 252.50-3.80L252.50-3.80L252.50-3.80Q247.20-9.10 247.20-18.80L247.20-18.80L247.20-18.80Q247.20-33.90 255.40-43.10L255.40-43.10L255.40-43.10Q264.20-53 279.50-53L279.50-53L279.50-53Q289-53 293.70-49L293.70-49L293.70-49Q297.20-46 297.20-41.10L297.20-41.10L297.20-41.10Q297.20-23.50 266.80-23.50L266.80-23.50L266.80-23.50Q266.40-20.90 266.40-18.70L266.40-18.70L266.40-18.70Q266.40-14.10 268.45-12.35L268.45-12.35L268.45-12.35Q270.50-10.60 274.30-10.60L274.30-10.60L274.30-10.60Q278.10-10.60 282.15-12.35L282.15-12.35L282.15-12.35Q286.20-14.10 287.90-16.90ZM267.50-27.80L267.50-27.80L267.50-27.80Q274.60-27.80 278.70-32.20L278.70-32.20L278.70-32.20Q282.80-36.40 282.80-43.10L282.80-43.10L282.80-43.10Q282.80-45.40 281.95-46.65L281.95-46.65L281.95-46.65Q281.10-47.90 279.40-47.90L279.40-47.90L279.40-47.90Q277.70-47.90 276.25-47.25L276.25-47.25L276.25-47.25Q274.80-46.60 273.30-44.40L273.30-44.40L273.30-44.40Q269.60-39.40 267.50-27.80ZM307.70-41.80L307.70-41.80L307.70-41.80Q311.10-46.60 316.25-49.80L316.25-49.80L316.25-49.80Q321.40-53 327.70-53L327.70-53L327.70-53Q334-53 337-51L337-51L356.60-53L349.80-14.60L349.80-14.60Q346.30 5 338.90 12.70L338.90 12.70L338.90 12.70Q331.80 20 318 20L318 20L318 20Q307.50 20 301.50 16.70L301.50 16.70L301.50 16.70Q295.50 13.40 295.50 7.90L295.50 7.90L295.50 7.90Q295.50 3.80 298.60 1.45L298.60 1.45L298.60 1.45Q301.70-0.90 306.50-0.90L306.50-0.90L306.50-0.90Q310.70-0.90 313.90 1L313.90 1L313.90 1Q315.80 2 316.70 3.40L316.70 3.40L316.70 3.40Q314.40 5.40 314.40 8.70L314.40 8.70L314.40 8.70Q314.40 13 318.40 13L318.40 13L318.40 13Q325.10 13 328.90-2.80L328.90-2.80L328.90-2.80Q330-7.10 330.90-11.40L330.90-11.40L330.90-11.40Q326.40-5.90 316.20-5.90L316.20-5.90L316.20-5.90Q309.10-5.90 305-9.30L305-9.30L305-9.30Q300.90-12.70 300.90-20.70L300.90-20.70L300.90-20.70Q300.90-25.70 302.60-31.35L302.60-31.35L302.60-31.35Q304.30-37 307.70-41.80ZM320.70-20.40L320.70-20.40L320.70-20.40Q320.70-13.60 324.20-13.60L324.20-13.60L324.20-13.60Q326.60-13.60 328.90-16.20L328.90-16.20L328.90-16.20Q330.70-18.30 331.40-21.40L331.40-21.40L336.50-47.10L336.50-47.10Q336-47.20 335.50-47.40L335.50-47.40L335.50-47.40Q334.50-47.80 333.20-47.80L333.20-47.80L333.20-47.80Q327.10-47.80 323.50-37.80L323.50-37.80L323.50-37.80Q320.70-30 320.70-20.40ZM384.50-5.50L384.50-5.50L384.50-5.50Q381.40 2 371.50 2L371.50 2L371.50 2Q366.40 2 363.20-1.50L363.20-1.50L363.20-1.50Q360.50-4.60 360.50-7.70L360.50-7.70L360.50-7.70Q360.50-15.80 364.20-31.60L364.20-31.60L367.90-51L388.20-53L382.10-21.40L382.10-21.40Q380.40-14 380.40-11.40L380.40-11.40L380.40-11.40Q380.40-5.70 384.50-5.50ZM369.70-64.90L369.70-64.90L369.70-64.90Q369.70-68.80 372.95-70.90L372.95-70.90L372.95-70.90Q376.20-73 380.90-73L380.90-73L380.90-73Q385.60-73 388.45-70.90L388.45-70.90L388.45-70.90Q391.30-68.80 391.30-64.90L391.30-64.90L391.30-64.90Q391.30-61 388.15-59L388.15-59L388.15-59Q385.00-57 380.30-57L380.30-57L380.30-57Q375.60-57 372.65-59L372.65-59L372.65-59Q369.70-61 369.70-64.90ZM442.10-41.60L442.10-41.60L442.10-41.60Q442.10-37.40 438.60-34.80L438.60-34.80L438.60-34.80Q435.10-32.20 429.40-32.20L429.40-32.20L429.40-32.20Q427.00-32.20 425.60-32.90L425.60-32.90L425.60-32.90Q426.70-35.50 427.05-38.75L427.05-38.75L427.05-38.75Q427.40-42 427.40-42.90L427.40-42.90L427.40-42.90Q427.40-47.10 424.50-47.10L424.50-47.10L424.50-47.10Q422.50-47.10 420.25-44.60L420.25-44.60L420.25-44.60Q418.00-42.10 416.10-38.20L416.10-38.20L416.10-38.20Q411.90-29.20 411.90-20.10L411.90-20.10L411.90-20.10Q411.90-15.10 413.80-12.85L413.80-12.85L413.80-12.85Q415.70-10.60 419.90-10.60L419.90-10.60L419.90-10.60Q425.70-10.60 430.30-15.40L430.30-15.40L430.30-15.40Q431.60-16.90 432.30-18.60L432.30-18.60L432.30-18.60Q436.10-16.60 436.10-11.10L436.10-11.10L436.10-11.10Q436.10-5.50 429.90-1.80L429.90-1.80L429.90-1.80Q423.50 2 413.30 2L413.30 2L413.30 2Q393.00 2 393.00-19.50L393.00-19.50L393.00-19.50Q393.00-35.20 401.90-44.20L401.90-44.20L401.90-44.20Q410.50-53 426.30-53L426.30-53L426.30-53Q442.10-53 442.10-41.60ZM504.50-66.70L504.50-66.70L504.50-66.70Q529-66.70 529-49.40L529-49.40L529-49.40Q529-39.90 522.90-34.20L522.90-34.20L522.90-34.20Q516.90-28.50 506.40-28.50L506.40-28.50L506.40-28.50Q501.50-28.50 497.70-31.30L497.70-31.30L497.70-31.30Q495.90-32.50 494.70-34.10L494.70-34.10L494.70-34.10Q502-34.10 505.85-38.55L505.85-38.55L505.85-38.55Q509.70-43 509.70-51.70L509.70-51.70L509.70-51.70Q509.70-60.40 501.10-60.40L501.10-60.40L498.70-60.40L498.70-60.40Q498.10-60.40 497.60-60.30L497.60-60.30L486.10 0L464.40 0L476.70-65.50L476.70-65.50Q487.40-66.50 493.60-66.60L493.60-66.60L493.60-66.60Q499.80-66.70 504.50-66.70ZM553.40-5.50L553.40-5.50L553.40-5.50Q550.30 2 540.40 2L540.40 2L540.40 2Q535.40 2 532.20-1.50L532.20-1.50L532.20-1.50Q529.60-4.40 529.60-7.70L529.60-7.70L529.60-7.70Q529.60-15.20 533.10-31.60L533.10-31.60L540.40-70L560.70-72L551-21.40L551-21.40Q549.30-14 549.30-11.40L549.30-11.40L549.30-11.40Q549.30-5.70 553.40-5.50ZM566.25-3L566.25-3L566.25-3Q563.90-5.60 562.85-9.70L562.85-9.70L562.85-9.70Q561.80-13.80 561.80-20.50L561.80-20.50L561.80-20.50Q561.80-27.20 564.10-33.30L564.10-33.30L564.10-33.30Q566.40-39.40 570.60-43.80L570.60-43.80L570.60-43.80Q579.20-53 593.40-53L593.40-53L593.40-53Q598.50-53 602.20-51.30L602.20-51.30L619.30-53L611.90-14L611.90-14Q611.60-12.80 611.60-10.60L611.60-10.60L611.60-10.60Q611.60-8.40 612.95-7L612.95-7L612.95-7Q614.30-5.60 616.30-5.40L616.30-5.40L616.30-5.40Q615.30-2 611.65 0L611.65 0L611.65 0Q608.00 2 603.90 2L603.90 2L603.90 2Q599.80 2 597.05 0.45L597.05 0.45L597.05 0.45Q594.30-1.10 593.50-3.70L593.50-3.70L593.50-3.70Q591.90-1.20 588.50 0.40L588.50 0.40L588.50 0.40Q585.10 2 580.55 2L580.55 2L580.55 2Q576.00 2 572.30 0.80L572.30 0.80L572.30 0.80Q568.60-0.40 566.25-3ZM587.35-43.60L587.35-43.60L587.35-43.60Q586.20-41.80 585.20-38.75L585.20-38.75L585.20-38.75Q584.20-35.70 582.55-27.55L582.55-27.55L582.55-27.55Q580.90-19.40 580.90-13.60L580.90-13.60L580.90-13.60Q580.90-7.80 581.80-6.10L581.80-6.10L581.80-6.10Q582.70-4.40 584.30-4.40L584.30-4.40L584.30-4.40Q587.50-4.40 589.85-7.45L589.85-7.45L589.85-7.45Q592.20-10.50 593.10-15.90L593.10-15.90L598.40-45.20L598.40-45.20Q596.30-47 593.85-47L593.85-47L593.85-47Q591.40-47 589.95-46.20L589.95-46.20L589.95-46.20Q588.50-45.40 587.35-43.60ZM667.00 2L667.00 2L667.00 2Q654.90 2 654.90-7.40L654.90-7.40L654.90-7.40Q655.00-10 655.80-14.40L655.80-14.40L657.60-23.60L657.60-23.60Q660.30-36.60 660.30-39.50L660.30-39.50L660.30-39.50Q660.30-45.30 656.90-45.30L656.90-45.30L656.90-45.30Q651.20-45.30 648.20-30.40L648.20-30.40L642.30 0L622.20 2L632.60-51.10L649.00-53L647.40-43.20L647.40-43.20Q652.10-53 666.50-53L666.50-53L666.50-53Q673.50-53 676.45-50.05L676.45-50.05L676.45-50.05Q679.40-47.10 679.40-40.50L679.40-40.50L679.40-40.50Q679.40-34.30 676.20-19.80L676.20-19.80L676.20-19.80Q674.70-13.30 674.70-10.85L674.70-10.85L674.70-10.85Q674.70-8.40 676.05-7L676.05-7L676.05-7Q677.40-5.60 679.40-5.40L679.40-5.40L679.40-5.40Q678.40-2 674.95 0L674.95 0L674.95 0Q671.50 2 667.00 2ZM729.70 2L729.70 2L729.70 2Q717.60 2 717.60-7.40L717.60-7.40L717.60-7.40Q717.70-10 718.50-14.40L718.50-14.40L720.30-23.60L720.30-23.60Q723.00-36.60 723.00-39.50L723.00-39.50L723.00-39.50Q723.00-45.30 719.60-45.30L719.60-45.30L719.60-45.30Q713.90-45.30 710.90-30.40L710.90-30.40L705.00 0L684.90 2L695.30-51.10L711.70-53L710.10-43.20L710.10-43.20Q714.80-53 729.20-53L729.20-53L729.20-53Q736.20-53 739.15-50.05L739.15-50.05L739.15-50.05Q742.10-47.10 742.10-40.50L742.10-40.50L742.10-40.50Q742.10-34.30 738.90-19.80L738.90-19.80L738.90-19.80Q737.40-13.30 737.40-10.85L737.40-10.85L737.40-10.85Q737.40-8.40 738.75-7L738.75-7L738.75-7Q740.10-5.60 742.10-5.40L742.10-5.40L742.10-5.40Q741.10-2 737.65 0L737.65 0L737.65 0Q734.20 2 729.70 2ZM774.10-5.50L774.10-5.50L774.10-5.50Q771 2 761.10 2L761.10 2L761.10 2Q756 2 752.80-1.50L752.80-1.50L752.80-1.50Q750.10-4.60 750.10-7.70L750.10-7.70L750.10-7.70Q750.10-15.80 753.80-31.60L753.80-31.60L757.50-51L777.80-53L771.70-21.40L771.70-21.40Q770-14 770-11.40L770-11.40L770-11.40Q770-5.70 774.10-5.50ZM759.30-64.90L759.30-64.90L759.30-64.90Q759.30-68.80 762.55-70.90L762.55-70.90L762.55-70.90Q765.80-73 770.50-73L770.50-73L770.50-73Q775.20-73 778.05-70.90L778.05-70.90L778.05-70.90Q780.90-68.80 780.90-64.90L780.90-64.90L780.90-64.90Q780.90-61 777.75-59L777.75-59L777.75-59Q774.60-57 769.90-57L769.90-57L769.90-57Q765.20-57 762.25-59L762.25-59L762.25-59Q759.30-61 759.30-64.90ZM824.90 2L824.90 2L824.90 2Q812.80 2 812.80-7.40L812.80-7.40L812.80-7.40Q812.90-10 813.70-14.40L813.70-14.40L815.50-23.60L815.50-23.60Q818.20-36.60 818.20-39.50L818.20-39.50L818.20-39.50Q818.20-45.30 814.80-45.30L814.80-45.30L814.80-45.30Q809.10-45.30 806.10-30.40L806.10-30.40L800.20 0L780.10 2L790.50-51.10L806.90-53L805.30-43.20L805.30-43.20Q810-53 824.40-53L824.40-53L824.40-53Q831.40-53 834.35-50.05L834.35-50.05L834.35-50.05Q837.30-47.10 837.30-40.50L837.30-40.50L837.30-40.50Q837.30-34.30 834.10-19.80L834.10-19.80L834.10-19.80Q832.60-13.30 832.60-10.85L832.60-10.85L832.60-10.85Q832.60-8.40 833.95-7L833.95-7L833.95-7Q835.30-5.60 837.30-5.40L837.30-5.40L837.30-5.40Q836.30-2 832.85 0L832.85 0L832.85 0Q829.40 2 824.90 2ZM852.40-41.80L852.40-41.80L852.40-41.80Q855.80-46.60 860.95-49.80L860.95-49.80L860.95-49.80Q866.10-53 872.40-53L872.40-53L872.40-53Q878.70-53 881.70-51L881.70-51L901.30-53L894.50-14.60L894.50-14.60Q891 5 883.60 12.70L883.60 12.70L883.60 12.70Q876.50 20 862.70 20L862.70 20L862.70 20Q852.20 20 846.20 16.70L846.20 16.70L846.20 16.70Q840.20 13.40 840.20 7.90L840.20 7.90L840.20 7.90Q840.20 3.80 843.30 1.45L843.30 1.45L843.30 1.45Q846.40-0.90 851.20-0.90L851.20-0.90L851.20-0.90Q855.40-0.90 858.60 1L858.60 1L858.60 1Q860.50 2 861.40 3.40L861.40 3.40L861.40 3.40Q859.10 5.40 859.10 8.70L859.10 8.70L859.10 8.70Q859.10 13 863.10 13L863.10 13L863.10 13Q869.80 13 873.60-2.80L873.60-2.80L873.60-2.80Q874.70-7.10 875.60-11.40L875.60-11.40L875.60-11.40Q871.10-5.90 860.90-5.90L860.90-5.90L860.90-5.90Q853.80-5.90 849.70-9.30L849.70-9.30L849.70-9.30Q845.60-12.70 845.60-20.70L845.60-20.70L845.60-20.70Q845.60-25.70 847.30-31.35L847.30-31.35L847.30-31.35Q849-37 852.40-41.80ZM865.40-20.40L865.40-20.40L865.40-20.40Q865.40-13.60 868.90-13.60L868.90-13.60L868.90-13.60Q871.30-13.60 873.60-16.20L873.60-16.20L873.60-16.20Q875.40-18.30 876.10-21.40L876.10-21.40L881.20-47.10L881.20-47.10Q880.70-47.20 880.20-47.40L880.20-47.40L880.20-47.40Q879.20-47.80 877.90-47.80L877.90-47.80L877.90-47.80Q871.80-47.80 868.20-37.80L868.20-37.80L868.20-37.80Q865.40-30 865.40-20.40Z" fill="#f18e00"></path></g></g><style>text {
  font-size: 64px;
  font-family: Arial Black;
  dominant-baseline: central;
  text-anchor: middle;
}</style></svg>