<?xml version="1.0" encoding="utf-8"?>
<!-- Generator: Adobe Illustrator 19.0.0, SVG Export Plug-In . SVG Version: 6.00 Build 0)  -->
<svg version="1.1" id="Group_34" xmlns="http://www.w3.org/2000/svg" xmlns:xlink="http://www.w3.org/1999/xlink" x="0px" y="0px"
	 viewBox="-34.5 358.2 689 76.8" style="enable-background:new -34.5 358.2 689 76.8;" xml:space="preserve">
<style type="text/css">
	.st0{fill:#636466;}
	.st1{fill:none;}
	.st2{fill:#25387B;}
	.st3{fill:#E01F27;}
	.st4{fill:#F47C26;}
	.st5{fill:#226FB7;}
	.st6{fill:#2270B8;}
	.st7{fill:#FF7C00;}
	.st8{fill:#5D5D5D;stroke:#636566;stroke-miterlimit:10;}
</style>
<g>
	<path id="Path_37" class="st0" d="M484.5,375.4h21.9v5.4h-15.7v12.5h14.5v5.2h-14.5v13.7h15.7v5.4h-21.9V375.4z"/>
	<path id="Path_38" class="st0" d="M514,375.4h21.9v5.4h-15.7v12.5h14.5v5.2h-14.5v13.7h15.7v5.4H514V375.4z"/>
	<path id="Path_39" class="st0" d="M566.9,416.9c-3,0.9-6.1,1.5-9.3,1.5c-10.5,0-15.4-3.8-15.4-21.5c0-17.6,5.7-21.9,15.9-21.9
		c3,0,5.9,0.4,8.8,1.2l-0.8,5.2c-2.5-0.7-4.9-1.1-7.6-1.1c-6.7,0-9.9,2.2-9.9,16.3s3,16.5,10,16.5c2.5,0,5.2-0.4,7.5-1.2
		L566.9,416.9z"/>
	<path id="Path_40" class="st0" d="M575.1,375.4h9.9l6.3,23.4c1.3,4.6,2,8.3,3.1,13.3h0.1c1.1-5,1.8-8.9,3-13.5l6.3-23.4h10
		l3.4,42.2h-6.7l-1.6-24.8c-0.2-4.5-0.4-8.3-0.5-12.9l0,0c-1.1,4.5-1.9,8.4-3.1,12.9l-6.4,24.8h-8.4l-6.4-24.8
		c-1.2-4.5-2-8.5-3.1-12.9h-0.1c-0.1,4.5-0.2,8.4-0.5,12.9l-1.6,24.8h-6.3L575.1,375.4z"/>
	<path id="Path_41" class="st0" d="M625.2,375.4h12.7c11.9,0,16.6,3.6,16.6,20.8c0,16.9-4.8,21.4-16.9,21.4h-12.4V375.4z
		 M637.6,412.3c7.3,0,10.2-2.6,10.2-15.8c0-13.5-2.8-15.6-10.2-15.6h-6v31.5L637.6,412.3L637.6,412.3z"/>
	<path id="Path_85" class="st1" d="M429.5,385.8l8.1,8.5l4.6-5l4.7,5l12.8-13.6l-17.5-18.5l-12.7,13.6l4.6,4.9L429.5,385.8z"/>
	<path id="Path_86" class="st1" d="M437.6,398.6l-8.1,8.5l4.6,4.9l-4.6,5l12.7,13.6l17.5-18.6l-12.8-13.5l-4.7,4.9L437.6,398.6z"/>
	<path id="Path_87" class="st1" d="M425.4,407.3l-8.1-8.5l-4.7,4.9l-4.6-4.9l-12.8,13.4l17.4,18.6l12.8-13.6l-4.7-5L425.4,407.3z"/>
	<polygon id="Rectangle_104" class="st1" points="430.1,412.3 427.4,415.2 424.7,412.3 427.4,409.3 	"/>
	<polygon id="Rectangle_105" class="st1" points="415.4,396.6 412.7,399.4 410,396.6 412.7,393.7 	"/>
	<polygon id="Rectangle_106" class="st1" points="435.7,396.6 427.6,405.2 419.5,396.6 427.6,387.9 	"/>
	<polygon id="Rectangle_107" class="st1" points="430.1,380.9 427.5,383.8 424.8,380.9 427.5,378 	"/>
	<path id="Path_88" class="st1" d="M417.5,394.4l8.1-8.5l-4.7-5l4.7-4.9l-12.8-13.6l-17.5,18.4l12.8,13.6l4.6-5L417.5,394.4z"/>
	<polygon id="Rectangle_108" class="st1" points="445,396.6 442.2,399.4 439.5,396.6 442.2,393.7 	"/>
	<path id="Path_89" class="st2" d="M442.2,357.9l-14.7,15.7l1.9,2.1l12.7-13.6l17.5,18.5l-12.8,13.6l-1.9,2.1l-2.7,2.8l-2.7-2.8
		l-1.9,2.1l4.6,4.9l4.7-4.9l1.9-2.1l14.7-15.7L442.2,357.9z"/>
	<path id="Path_90" class="st3" d="M442.2,389.4l-4.6,5l-1.9,2.1l-8.1,8.5l1.9,2.1l8.1-8.5l1.9-2.1l2.7-2.8l2.7,2.8l1.9-2.1
		L442.2,389.4z"/>
	<path id="Path_91" class="st2" d="M429.5,385.8l-1.9-2.1l-2.7-2.8l2.7-2.8l-1.9-2.1l-4.7,4.9l4.7,5l1.9,2.1l8.1,8.5l1.9-2.1
		L429.5,385.8z"/>
	<path id="Path_92" class="st4" d="M429.5,375.9l-1.9-2.1l-14.7-15.7L391.5,381l14.7,15.7l1.9-2.1l-12.8-13.7l17.4-18.5l12.8,13.6
		l1.9,2.1l2.7,2.8l-2.7,2.8l1.9,2.1l4.6-5L429.5,375.9z"/>
	<path id="Path_93" class="st3" d="M448.9,396.6l-1.9,2.1l12.8,13.5l-17.5,18.6l-12.7-13.6l-1.9-2.1l-2.7-2.8l2.7-2.8l-1.9-2.1
		l-4.7,4.9l4.7,5l1.9,2.1l14.7,15.7l21.4-22.9L448.9,396.6z"/>
	<path id="Path_94" class="st5" d="M429.5,407.3l-1.9-2.1l-8.1-8.5l-1.9,2.1l8.1,8.5l1.9,2.1l2.7,2.8l-2.7,2.8l1.9,2.1l4.6-5
		L429.5,407.3z"/>
	<path id="Path_95" class="st6" d="M425.4,417.2l-12.8,13.6l-17.4-18.7l12.8-13.5l1.9-2.1l2.7-2.8l2.7,2.8l1.9-2.1l-4.7-5l-4.6,5
		l-1.9,2.1l-14.7,15.7l21.4,22.9l14.7-15.7L425.4,417.2z"/>
	<path id="Path_96" class="st4" d="M425.4,385.8l-8.1,8.5l-1.9,2.1l-2.7,2.8l-2.7-2.8l-1.9,2.1l4.6,4.9l4.7-4.9l1.9-2.1l8.1-8.5
		L425.4,385.8z"/>
</g>
<g>
	<polygon class="st7" points="-33.9,358.6 -32,358.6 -21.3,377.4 -21.3,358.6 -19.4,358.6 -19.4,380.4 -21.4,380.4 -32.2,361.7 
		-32.2,380.4 -33.9,380.4 	"/>
	<path class="st7" d="M-14.3,373c0,4,1.8,6.3,4.5,6.3c2.1,0,3.6-1.4,4-3.7h1.6c-0.3,3.2-2.5,5.3-5.7,5.3c-3.6,0-6-3.1-6-8.3
		c0-5.3,2.3-8.5,6-8.5c3.6,0,5.9,3,5.9,8.1v0.6L-14.3,373L-14.3,373L-14.3,373z M-5.6,371.5c-0.1-3.5-1.7-5.5-4.2-5.5
		c-2.4,0-4.1,2.1-4.3,5.5H-5.6L-5.6,371.5z"/>
	<path class="st7" d="M1.4,364.6h2.5v1.5H1.4v11.5c0,1.2,0.1,1.7,1,1.7c0.4,0,0.9-0.2,1.5-0.3v1.5c-0.7,0.2-1.3,0.3-1.9,0.3
		c-1.7,0-2.1-1-2.1-3.2v-11.5H-2v-1.5h1.9v-4.5h1.6C1.4,360,1.4,364.6,1.4,364.6z"/>
	<path class="st7" d="M6.9,358.6h1.6v8.6c1-1.9,2.5-3,4.6-3c1.8,0,3.3,0.9,4,2.2c0.5,1,0.5,2.4,0.5,4.3v9.6h-1.6v-9.6
		c0-3.4-0.5-5-3.3-5c-2.5,0-4.2,2-4.2,5.3v9.3H6.9V358.6L6.9,358.6L6.9,358.6z"/>
	<path class="st7" d="M22.5,373c0,4,1.8,6.3,4.5,6.3c2.1,0,3.7-1.4,4-3.7h1.5c-0.3,3.2-2.5,5.3-5.7,5.3c-3.6,0-6-3.1-6-8.3
		c0-5.3,2.3-8.5,6-8.5c3.6,0,5.9,3,5.9,8.1v0.6L22.5,373L22.5,373L22.5,373z M31.1,371.5c-0.1-3.5-1.7-5.5-4.2-5.5
		c-2.4,0-4.1,2.1-4.3,5.5H31.1L31.1,371.5z"/>
	<path class="st7" d="M36,364.6h1.5v2.9c0.8-2.2,2.2-3.2,4.2-3.2h0.2v1.9h-0.2c-2.7,0-4.1,1.9-4.1,5.5v8.9H36V364.6z"/>
	<rect x="44.7" y="358.6" class="st7" width="1.6" height="21.9"/>
	<path class="st7" d="M54.3,380.8c-2.8,0-4.6-1.8-4.6-4.6c0-1.8,0.8-3.2,2.2-3.9c1.4-0.8,3.1-0.8,5-1c1.9-0.5,2.4-0.4,2.4-2
		c0-2.4-0.9-3.4-3.4-3.4c-2.4,0-3.7,1.2-3.8,3.5h-1.5c0.1-3.1,2.1-5.1,5.5-5.1c3.2,0,5,1.6,5,4.8v8.5v0.2c0,1,0,1.5,1,1.5
		c0.1,0,0.3,0,0.6,0v1.4c-0.5,0.1-0.9,0.2-1.1,0.2c-1.3,0-1.9-0.7-1.9-2.2v-0.2C57.8,379.9,56.2,380.8,54.3,380.8 M54.4,372.9
		c-2,0.6-3,1.7-3,3.3c0,1.8,1.2,3.1,3,3.1c2.8,0,4.9-1.8,4.9-4.9v-2.2C58.1,372.6,56.4,372.7,54.4,372.9"/>
	<path class="st7" d="M65,364.6h1.5v2.5c1-1.9,2.5-3,4.6-3c1.9,0,3.3,0.8,4.1,2.2c0.5,1,0.5,2.2,0.5,3.9v0.5v9.6h-1.6v-9.8
		c0-3.2-0.6-4.7-3.4-4.7c-2.5,0-4.1,2-4.1,5.3v9.3H65V364.6L65,364.6z"/>
	<path class="st7" d="M91.4,380.4h-1.6v-2.8c-1,2.1-2.7,3.1-4.9,3.1c-3.6,0-6-3.1-6-8.4c0-5.3,2.4-8.4,6.1-8.4
		c2.1,0,3.7,1.1,4.8,3.1v-8.9h1.6C91.4,358.6,91.4,380.4,91.4,380.4z M85.4,379.2c2.9,0,4.7-2.3,4.7-6.7c0-4.3-1.7-6.7-4.7-6.7
		c-2.9,0-4.7,2.4-4.7,6.7C80.6,376.9,82.4,379.2,85.4,379.2"/>
	<path class="st7" d="M96.5,375.5c0,2.2,1.5,3.7,3.6,3.7c2.3,0,3.6-1.2,3.6-3c0-1.9-1.3-2.3-3.6-3c-3.2-0.9-5-1.8-5-4.5
		c0-2.8,1.9-4.6,4.8-4.6c3,0,5,1.9,5.2,5h-1.6c-0.1-2.1-1.4-3.4-3.5-3.4c-1.9,0-3,1.1-3,2.8c0,2.3,1.6,2.5,4.5,3.3
		c2.9,0.8,4.1,1.9,4.1,4.4c0,2.7-2,4.5-5.3,4.5c-3.2,0-5.3-2.1-5.4-5.3L96.5,375.5L96.5,375.5z"/>
	<rect x="116.7" y="358.6" width="1.7" height="21.9"/>
	<path d="M123,364.6h1.5v2.5c1-1.9,2.5-3,4.6-3c1.9,0,3.3,0.8,4.1,2.2c0.5,1,0.5,2.2,0.5,3.9v0.5v9.6h-1.6v-9.8
		c0-3.2-0.6-4.7-3.4-4.7c-2.5,0-4.1,2-4.1,5.3v9.3H123V364.6L123,364.6z"/>
	<path d="M138.8,375.5c0,2.2,1.5,3.7,3.6,3.7c2.3,0,3.6-1.2,3.6-3c0-1.9-1.2-2.3-3.6-3c-3.2-0.9-5-1.8-5-4.5c0-2.8,1.9-4.6,4.8-4.6
		c3,0,5,1.9,5.2,5h-1.6c-0.1-2.1-1.4-3.4-3.5-3.4c-1.9,0-3,1.1-3,2.8c0,2.3,1.6,2.5,4.5,3.3c2.9,0.8,4.1,1.9,4.1,4.4
		c0,2.7-2,4.5-5.3,4.5s-5.3-2.1-5.4-5.3L138.8,375.5L138.8,375.5z"/>
	<path d="M153.1,364.6h2.5v1.5h-2.5v11.5c0,1.2,0.1,1.7,1,1.7c0.4,0,0.9-0.2,1.5-0.3v1.5c-0.7,0.2-1.3,0.3-1.9,0.3
		c-1.7,0-2.1-1-2.1-3.2v-11.5h-1.9v-1.5h1.9v-4.5h1.6L153.1,364.6L153.1,364.6z"/>
	<path d="M158.8,358.6h1.6v2.8h-1.6V358.6z M158.8,364.6h1.6v15.8h-1.6V364.6z"/>
	<path d="M166.6,364.6h2.5v1.5h-2.5v11.5c0,1.2,0.1,1.7,1,1.7c0.4,0,0.9-0.2,1.5-0.3v1.5c-0.7,0.2-1.3,0.3-1.9,0.3
		c-1.7,0-2.1-1-2.1-3.2v-11.5h-1.9v-1.5h1.9v-4.5h1.6L166.6,364.6L166.6,364.6z"/>
	<path d="M182.8,380.4h-1.5v-2.5c-1,2-2.5,3-4.6,3c-3.1,0-4.7-1.9-4.7-5.6v-10.6h1.6v10.2c0,3.1,0.8,4.4,3.3,4.4
		c2.6,0,4.2-2,4.2-5.3v-9.3h1.6L182.8,380.4L182.8,380.4z"/>
	<path d="M188.8,364.6h2.5v1.5h-2.5v11.5c0,1.2,0.1,1.7,1,1.7c0.4,0,0.9-0.2,1.5-0.3v1.5c-0.7,0.2-1.3,0.3-1.9,0.3
		c-1.7,0-2.1-1-2.1-3.2v-11.5h-1.9v-1.5h1.9v-4.5h1.6L188.8,364.6L188.8,364.6z"/>
	<path d="M195.3,373c0,4,1.8,6.3,4.5,6.3c2.1,0,3.7-1.4,4-3.7h1.6c-0.3,3.2-2.5,5.3-5.7,5.3c-3.6,0-6-3.1-6-8.3c0-5.3,2.3-8.5,6-8.5
		s5.9,3,5.9,8.1v0.6L195.3,373L195.3,373L195.3,373z M203.9,371.5c-0.1-3.5-1.7-5.5-4.2-5.5c-2.4,0-4.1,2.1-4.3,5.5H203.9z"/>
	<path d="M217.1,366.1h-2v-1.5h2v-3c0-2.4,1-3.4,3.2-3.4c0.3,0,0.5,0,0.8,0.1v1.6c-0.3,0-0.6-0.1-0.9-0.1c-1.2,0-1.6,0.6-1.6,2v2.8
		h2.5v1.5h-2.5v14.4H217L217.1,366.1L217.1,366.1z"/>
	<path d="M229.3,364.2c3.9,0,6.3,3.1,6.3,8.4c0,5.3-2.3,8.4-6.3,8.4c-3.9,0-6.3-3.1-6.3-8.4C223,367.2,225.3,364.2,229.3,364.2
		 M229.3,379.2c2.9,0,4.7-2.3,4.7-6.7c0-4.3-1.7-6.7-4.7-6.7c-2.9,0-4.7,2.4-4.7,6.7C224.7,377,226.4,379.2,229.3,379.2"/>
	<path d="M238.8,364.6h1.5v2.9c0.8-2.2,2.2-3.2,4.2-3.2h0.2v1.9h-0.1c-2.7,0-4.1,1.9-4.1,5.5v8.9h-1.6v-16H238.8z"/>
	<path d="M136.1,402.2h-6l7.3,23.8c0.1,0.2,0.1,0.5,0.1,0.7c0,2.3-1.1,3.5-3.2,3.5c-0.3,0-0.8,0-1.2-0.1v5.1
		c0.9,0.1,1.7,0.2,2.3,0.2c3.9,0,5.4-1.4,6.6-5.4l1-3.5L136.1,402.2z"/>
	<path d="M345.1,402.2h-6l7.3,23.8c0.1,0.2,0.1,0.5,0.1,0.7c0,2.3-1.1,3.5-3.2,3.5c-0.3,0-0.8,0-1.2-0.1v5.1
		c0.9,0.1,1.7,0.2,2.3,0.2c3.9,0,5.4-1.4,6.6-5.4l1-3.5L345.1,402.2z"/>
	<path class="st7" d="M353,408.3c1.4-6.1,5.5-10.1,5.5-10.1s1.7,5.8,0.3,11.9c-1.4,6.1-5.5,10.1-5.5,10.1S351.6,414.3,353,408.3"/>
	<polygon points="-33.9,393.9 -25.4,393.9 -19.9,418.2 -14.6,393.9 -6.1,393.9 -6.1,425.7 -11.4,425.7 -11.4,400.1 -17,425.7 
		-22.8,425.7 -28.5,400.1 -28.5,425.7 -33.9,425.7 	"/>
	<path d="M17.8,425.7h-5.4v-2.9c-1.5,2.2-3.6,3.4-6.2,3.4c-4.5,0-6.7-2.8-6.7-8.2v-16h5.5v14.4c0,3.2,0.8,4.6,3.1,4.6
		c2.5,0,4.1-1.9,4.1-4.9v-13.9h5.5C17.8,402.2,17.8,425.7,17.8,425.7z"/>
	<rect x="23.1" y="393.9" width="5.5" height="31.8"/>
	<path d="M39.8,426c-4.5,0-5.5-1.8-5.5-6.7v-12.7h-2.6v-4.4h2.6v-6.4h5.4v6.4h3.1v4.4h-3.1v13.1c0,1.2,0.3,1.5,1.8,1.5h1.3v4.7
		C41.4,426,40.3,426,39.8,426"/>
	<path d="M46.6,393.9h5.5v5.7h-5.5V393.9z M46.6,402.2h5.5v23.5h-5.5V402.2z"/>
	<path d="M57.4,402.2h5.2v3.2c1.6-2.8,3.4-4,6.1-4c5,0,8.4,4.9,8.4,12.4c0,7.8-3.5,12.6-8.3,12.6c-2.6,0-4.7-1.3-6-3.7v12.3h-5.3
		L57.4,402.2L57.4,402.2z M67.3,406.8c-2.8,0-4.5,2.5-4.5,7.3c0,4.5,1.7,6.9,4.6,6.9c2.6,0,4.3-2.7,4.3-6.9
		C71.7,409.3,70.1,406.8,67.3,406.8"/>
	<path d="M86.4,426.5c-3.9,0-6.2-2.7-6.2-7.5c0-4.6,2.1-6.6,6.9-7.5c4.2-0.7,5.7-0.4,5.7-2.7c0-1.9-1-2.7-3.3-2.7
		c-2.2,0-3.4,1.1-3.4,3v0.4h-5.1v-0.4c0-4.8,3-7.8,8.3-7.8c5.8,0,8.8,2.4,8.8,6.6v13.4c0,1.7,0.2,2.8,1.1,3.3v1.1h-5.7
		c-0.4-0.8-0.6-1.8-0.6-3C91.6,425.3,89.3,426.5,86.4,426.5 M88,415.7c-1.7,0.6-2.5,1.3-2.5,3.1c0,1.7,1,2.9,2.7,2.9
		c2.9,0,4.8-2,4.8-5.3v-2.2C90.8,415.2,89,415.4,88,415.7"/>
	<path d="M103,402.2h5.1v4c1.4-3.2,3.2-4.7,5.9-4.7c0.3,0,0.5,0,0.8,0v6.3h-1.9c-2.9,0-4.5,1.8-4.5,5.3v12.4h-5.5L103,402.2
		L103,402.2z"/>
	<path d="M125,426c-4.5,0-5.5-1.8-5.5-6.7v-12.7h-2.6v-4.4h2.6v-6.4h5.4v6.4h3.1v4.4h-3.1v13.1c0,1.2,0.3,1.5,1.8,1.5h1.3v4.7
		C126.6,426,125.5,426,125,426"/>
	<path d="M153,393.9h10.8c8.4,0,12.6,5.2,12.6,15.9c0,5.9-1.6,10.4-4.5,13.1c-2.6,2.5-5.7,2.9-9.7,2.9h-9.3v-31.8H153z M163.3,420
		c5.3,0,7.5-3.1,7.5-10.1c0-7.1-2.1-10.3-6.8-10.3h-5.3v20.5h4.6V420z"/>
	<path d="M199,418.6c-1.1,4.9-4.6,8-9.5,8c-5.8,0-9.6-4.8-9.6-12.7c0-7.8,3.6-12.4,9.6-12.4c6.2,0,9.8,4.5,9.8,12.6
		c0,0.5,0,1.1,0,1.6h-13.7c0.2,3.7,1.5,5.6,4.2,5.6c1.8,0,3-0.8,3.7-2.7L199,418.6L199,418.6z M193.6,411.5c-0.1-3.2-1.5-4.8-4-4.8
		c-2.3,0-3.7,1.7-3.9,4.8H193.6z"/>
	<path d="M203.2,402.2h5.2v2.7c1.5-2.2,3.3-3.3,5.7-3.3c2.5,0,4.3,1.1,5.7,3.4c1.4-2.3,3.3-3.4,5.8-3.4c4,0,6.7,3,6.7,7.8v16.4h-5.4
		v-15.1c0-2.3-1.1-3.6-3-3.6c-2,0-3.4,1.7-3.4,4.5v14.3h-5.4v-15.1c0-2.3-1.1-3.6-2.9-3.6c-2,0-3.4,1.7-3.4,4.5v14.3h-5.4
		L203.2,402.2L203.2,402.2z"/>
	<path d="M246.7,401.4c6.4,0,10.4,4.7,10.4,12.5c0,7.9-3.9,12.5-10.4,12.5s-10.4-4.7-10.4-12.5C236.3,406.1,240.2,401.4,246.7,401.4
		 M246.7,421.2c3,0,4.8-2.7,4.8-7.3c0-4.7-1.7-7.2-4.8-7.2c-3,0-4.8,2.7-4.8,7.2C241.8,418.7,243.6,421.2,246.7,421.2"/>
	<path d="M278.8,416.8c-0.5,6-4,9.6-9.3,9.6c-5.9,0-9.5-4.6-9.5-12.5c0-7.9,3.6-12.5,9.7-12.5c5.3,0,8.6,3.4,9,9.1h-5.4
		c-0.3-2.5-1.5-3.8-3.5-3.8c-2.7,0-4,2.5-4,7.3c0,4.5,1.4,7,4,7c2,0,3.2-1.4,3.6-4.2H278.8L278.8,416.8z"/>
	<path d="M282.7,402.2h5.1v4c1.4-3.2,3.2-4.7,5.9-4.7c0.3,0,0.5,0,0.8,0v6.3h-1.8c-2.9,0-4.5,1.8-4.5,5.3v12.4h-5.5V402.2
		L282.7,402.2z"/>
	<path d="M302.9,426.5c-3.9,0-6.2-2.7-6.2-7.5c0-4.6,2.1-6.6,6.9-7.5c4.2-0.7,5.7-0.4,5.7-2.7c0-1.9-1-2.7-3.3-2.7
		c-2.2,0-3.4,1.1-3.4,3v0.4h-5.1v-0.4c0-4.8,3-7.8,8.3-7.8c5.8,0,8.8,2.4,8.8,6.6v13.4c0,1.7,0.2,2.8,1.1,3.3v1.1H310
		c-0.4-0.8-0.6-1.8-0.6-3C308.1,425.3,305.9,426.5,302.9,426.5 M304.6,415.7c-1.7,0.6-2.5,1.3-2.5,3.1c0,1.7,1,2.9,2.6,2.9
		c2.9,0,4.8-2,4.8-5.3v-2.2C307.3,415.2,305.6,415.4,304.6,415.7"/>
	<path d="M337.5,416.8c-0.5,6-4,9.6-9.3,9.6c-5.9,0-9.5-4.6-9.5-12.5c0-7.9,3.6-12.5,9.7-12.5c5.3,0,8.6,3.4,9,9.1h-5.3
		c-0.3-2.5-1.5-3.8-3.5-3.8c-2.7,0-4,2.5-4,7.3c0,4.5,1.4,7,4,7c2,0,3.2-1.4,3.6-4.2H337.5L337.5,416.8z"/>
</g>
<line class="st8" x1="376" y1="369.4" x2="376" y2="425.5"/>
</svg>
